<svg xmlns="http://www.w3.org/2000/svg" width="23" height="23" viewBox="0 0 28 28">
  <g id="Group_3797" data-name="Group 3797" transform="translate(-0.493)">
    <g id="Ellipse_22" data-name="Ellipse 22" transform="translate(0.493)" fill="none" stroke="#d0ddf4" stroke-width="1">
      <circle cx="14" cy="14" r="14" stroke="none"/>
      <circle cx="14" cy="14" r="13.5" fill="none"/>
    </g>
    <path id="Union_98" data-name="Union 98" d="M9.313,14.375A15.076,15.076,0,0,1,.125,5.187,2.02,2.02,0,0,1,.7,2.945l1.331-1.34a1.125,1.125,0,0,1,1.594,0L5.735,3.721a1.128,1.128,0,0,1,0,1.594l-.675.675a10.406,10.406,0,0,0,3.45,3.453l.616-.617a1.123,1.123,0,0,1,1.594,0l2.115,2.115a1.126,1.126,0,0,1,0,1.594l-1.349,1.35a.226.226,0,0,1-.024.021,1.978,1.978,0,0,1-1.429.595A2.167,2.167,0,0,1,9.313,14.375ZM2.7,2.28,1.357,3.633a.213.213,0,0,1-.039.033,1.079,1.079,0,0,0-.293,1.206,14.107,14.107,0,0,0,8.6,8.6,1.077,1.077,0,0,0,1.169-.25.6.6,0,0,1,.046-.043l1.319-1.322a.171.171,0,0,0,0-.247L10.049,9.5a.176.176,0,0,0-.247,0l-.879.876a.472.472,0,0,1-.568.079,11.318,11.318,0,0,1-4.307-4.3.474.474,0,0,1,.079-.57l.937-.935a.18.18,0,0,0,0-.25L2.948,2.28a.174.174,0,0,0-.125-.052A.164.164,0,0,0,2.7,2.28Zm10.85,4.6A5.94,5.94,0,0,0,7.619.952a.476.476,0,1,1,0-.952A6.883,6.883,0,0,1,14.5,6.884a.476.476,0,1,1-.952,0Zm-1.85,0A4.088,4.088,0,0,0,7.619,2.8a.476.476,0,1,1,0-.952,5.04,5.04,0,0,1,5.034,5.034.476.476,0,1,1-.952,0Zm-1.869,0A2.215,2.215,0,0,0,7.619,4.67a.476.476,0,1,1,0-.952,3.169,3.169,0,0,1,3.166,3.166.477.477,0,1,1-.953,0Z" transform="translate(6.751 6.999)" fill="#727272"/>
  </g>
</svg>
