<svg width="27" height="31" viewBox="0 0 27 31" fill="none" xmlns="http://www.w3.org/2000/svg">
    <g filter="url(#filter0_d_873_2635)">
    <path d="M21.6727 12.4392C22.2865 17.4458 22.5935 19.9491 21.0735 20.9425C19.5535 21.9358 17.384 20.6497 13.045 18.0777L10.0902 16.3261C6.75786 14.3508 5.0917 13.3631 5.15452 12.3236C5.17138 12.0442 5.25415 11.7686 5.3965 11.5184C5.92576 10.588 7.92817 10.4571 11.9329 10.1952C12.8212 10.1371 13.2654 10.1081 13.6417 9.90885C13.7509 9.85102 13.8546 9.78324 13.9514 9.70646C14.285 9.44175 14.4899 9.04657 14.8997 8.25636C16.7472 4.69358 17.671 2.9122 18.7356 2.80094C19.0219 2.77103 19.3075 2.8058 19.5703 2.90252C20.5475 3.2623 20.7832 5.18482 21.2546 9.02983L21.6727 12.4392Z" fill="#e58800"/>
    <path d="M21.6727 12.4392C22.2865 17.4458 22.5935 19.9491 21.0735 20.9425C19.5535 21.9358 17.384 20.6497 13.045 18.0777L10.0902 16.3261C6.75786 14.3508 5.0917 13.3631 5.15452 12.3236C5.17138 12.0442 5.25415 11.7686 5.3965 11.5184C5.92576 10.588 7.92817 10.4571 11.9329 10.1952C12.8212 10.1371 13.2654 10.1081 13.6417 9.90885C13.7509 9.85102 13.8546 9.78324 13.9514 9.70646C14.285 9.44175 14.4899 9.04657 14.8997 8.25636C16.7472 4.69358 17.671 2.9122 18.7356 2.80094C19.0219 2.77103 19.3075 2.8058 19.5703 2.90252C20.5475 3.2623 20.7832 5.18482 21.2546 9.02983L21.6727 12.4392Z" stroke="white" stroke-width="1.5"/>
    </g>
    <defs>
    <filter id="filter0_d_873_2635" x="0.402832" y="2.04053" width="26.5244" height="27.9878" filterUnits="userSpaceOnUse" color-interpolation-filters="sRGB">
    <feFlood flood-opacity="0" result="BackgroundImageFix"/>
    <feColorMatrix in="SourceAlpha" type="matrix" values="0 0 0 0 0 0 0 0 0 0 0 0 0 0 0 0 0 0 127 0" result="hardAlpha"/>
    <feOffset dy="4"/>
    <feGaussianBlur stdDeviation="2"/>
    <feComposite in2="hardAlpha" operator="out"/>
    <feColorMatrix type="matrix" values="0 0 0 0 0 0 0 0 0 0 0 0 0 0 0 0 0 0 0.25 0"/>
    <feBlend mode="normal" in2="BackgroundImageFix" result="effect1_dropShadow_873_2635"/>
    <feBlend mode="normal" in="SourceGraphic" in2="effect1_dropShadow_873_2635" result="shape"/>
    </filter>
    </defs>
</svg>