<svg xmlns="http://www.w3.org/2000/svg" xmlns:xlink="http://www.w3.org/1999/xlink" viewBox="0 0 49.74 123.31">
	<defs>
		<filter id="luminosity-noclip" x="28.68" y="-8106.74" width="3.47" height="32766" filterUnits="userSpaceOnUse" color-interpolation-filters="sRGB">
			<feFlood flood-color="#fff" result="bg" />
			<feBlend in="SourceGraphic" in2="bg" />
		</filter>
		<mask id="mask" x="28.68" y="-8106.74" width="3.47" height="32766" maskUnits="userSpaceOnUse">
			<g filter="url(#luminosity-noclip)" />
		</mask>
		<linearGradient id="linear-gradient" x1="29.3" y1="18.93" x2="32.47" y2="19.19" gradientUnits="userSpaceOnUse">
			<stop offset="0" stop-color="#fff" />
			<stop offset="1" />
		</linearGradient>
		<filter id="luminosity-noclip-2" x="41.44" y="-8106.74" width="6.58" height="32766" filterUnits="userSpaceOnUse" color-interpolation-filters="sRGB">
			<feFlood flood-color="#fff" result="bg" />
			<feBlend in="SourceGraphic" in2="bg" />
		</filter>
		<mask id="mask-2" x="41.44" y="-8106.74" width="6.58" height="32766" maskUnits="userSpaceOnUse">
			<g filter="url(#luminosity-noclip-2)" />
		</mask>
		<linearGradient id="linear-gradient-2" x1="-2611.47" y1="17.98" x2="-2607.24" y2="24" gradientTransform="matrix(-1, 0, 0, 1, -2564.52, 0)" gradientUnits="userSpaceOnUse">
			<stop offset="0" stop-color="#fff" />
			<stop offset="0.04" stop-color="#eaeaea" />
			<stop offset="0.2" stop-color="#a4a4a4" />
			<stop offset="0.34" stop-color="#696969" />
			<stop offset="0.47" stop-color="#3c3c3c" />
			<stop offset="0.59" stop-color="#1b1b1b" />
			<stop offset="0.69" stop-color="#070707" />
			<stop offset="0.75" />
		</linearGradient>
		<filter id="luminosity-noclip-3" x="37.27" y="-8106.74" width="3.11" height="32766" filterUnits="userSpaceOnUse" color-interpolation-filters="sRGB">
			<feFlood flood-color="#fff" result="bg" />
			<feBlend in="SourceGraphic" in2="bg" />
		</filter>
		<mask id="mask-3" x="37.27" y="-8106.74" width="3.11" height="32766" maskUnits="userSpaceOnUse">
			<g filter="url(#luminosity-noclip-3)" />
		</mask>
		<linearGradient id="linear-gradient-3" x1="39.15" y1="25.23" x2="38.41" y2="27.3" gradientTransform="matrix(1, 0, 0, 1, 0, 0)" xlink:href="#linear-gradient-2" />
		<filter id="luminosity-noclip-4" x="9.48" y="-8106.74" width="3.11" height="32766" filterUnits="userSpaceOnUse" color-interpolation-filters="sRGB">
			<feFlood flood-color="#fff" result="bg" />
			<feBlend in="SourceGraphic" in2="bg" />
		</filter>
		<mask id="mask-4" x="9.48" y="-8106.74" width="3.11" height="32766" maskUnits="userSpaceOnUse">
			<g filter="url(#luminosity-noclip-4)" />
		</mask>
		<linearGradient id="linear-gradient-4" x1="-3311.35" y1="25.25" x2="-3312.09" y2="27.32" gradientTransform="matrix(-1, 0, 0, 1, -3300.65, 0)" xlink:href="#linear-gradient-2" />
		<filter id="luminosity-noclip-5" x="18.79" y="-8106.74" width="11.12" height="32766" filterUnits="userSpaceOnUse" color-interpolation-filters="sRGB">
			<feFlood flood-color="#fff" result="bg" />
			<feBlend in="SourceGraphic" in2="bg" />
		</filter>
		<mask id="mask-5" x="18.79" y="-8106.74" width="11.12" height="32766" maskUnits="userSpaceOnUse">
			<g filter="url(#luminosity-noclip-5)" />
		</mask>
		<linearGradient id="linear-gradient-5" x1="14.56" y1="78.53" x2="29.8" y2="78.72" gradientTransform="matrix(1, 0, 0, 1, 0, 0)" xlink:href="#linear-gradient-2" />
		<filter id="luminosity-noclip-6" x="17.02" y="-8106.74" width="4.36" height="32766" filterUnits="userSpaceOnUse" color-interpolation-filters="sRGB">
			<feFlood flood-color="#fff" result="bg" />
			<feBlend in="SourceGraphic" in2="bg" />
		</filter>
		<mask id="mask-6" x="17.02" y="-8106.74" width="4.36" height="32766" maskUnits="userSpaceOnUse">
			<g filter="url(#luminosity-noclip-6)" />
		</mask>
		<linearGradient id="linear-gradient-6" x1="17.02" y1="18.79" x2="21.37" y2="18.79" gradientUnits="userSpaceOnUse">
			<stop offset="0" />
			<stop offset="1" stop-color="#fff" />
		</linearGradient>
		<filter id="luminosity-noclip-7" x="13.22" y="-8106.74" width="3.82" height="32766" filterUnits="userSpaceOnUse" color-interpolation-filters="sRGB">
			<feFlood flood-color="#fff" result="bg" />
			<feBlend in="SourceGraphic" in2="bg" />
		</filter>
		<mask id="mask-7" x="13.22" y="-8106.74" width="3.82" height="32766" maskUnits="userSpaceOnUse">
			<g filter="url(#luminosity-noclip-7)" />
		</mask>
		<linearGradient id="linear-gradient-7" x1="16.25" y1="25.21" x2="13.14" y2="24.93" xlink:href="#linear-gradient" />
		<filter id="luminosity-noclip-8" x="32.42" y="-8106.74" width="4.05" height="32766" filterUnits="userSpaceOnUse" color-interpolation-filters="sRGB">
			<feFlood flood-color="#fff" result="bg" />
			<feBlend in="SourceGraphic" in2="bg" />
		</filter>
		<mask id="mask-8" x="32.42" y="-8106.74" width="4.05" height="32766" maskUnits="userSpaceOnUse">
			<g filter="url(#luminosity-noclip-8)" />
		</mask>
		<linearGradient id="linear-gradient-8" x1="33.03" y1="25.33" x2="36.46" y2="24.67" xlink:href="#linear-gradient" />
		<filter id="luminosity-noclip-9" x="1.73" y="-8106.74" width="6.58" height="32766" filterUnits="userSpaceOnUse" color-interpolation-filters="sRGB">
			<feFlood flood-color="#fff" result="bg" />
			<feBlend in="SourceGraphic" in2="bg" />
		</filter>
		<mask id="mask-9" x="1.73" y="-8106.74" width="6.58" height="32766" maskUnits="userSpaceOnUse">
			<g filter="url(#luminosity-noclip-9)" />
		</mask>
		<linearGradient id="linear-gradient-9" x1="2.79" y1="17.98" x2="7.03" y2="24" gradientTransform="matrix(1, 0, 0, 1, 0, 0)" xlink:href="#linear-gradient-2" />
		<linearGradient id="linear-gradient-10" x1="29.21" y1="96.29" x2="36.82" y2="94.6" gradientUnits="userSpaceOnUse">
			<stop offset="0.25" stop-color="#636466" />
			<stop offset="0.34" stop-color="#6a6b6d" />
			<stop offset="0.47" stop-color="#7e7f81" />
			<stop offset="0.64" stop-color="#9f9fa1" />
			<stop offset="0.82" stop-color="#cccccd" />
			<stop offset="1" stop-color="#fff" />
		</linearGradient>
		<linearGradient id="linear-gradient-11" x1="33.34" y1="98.93" x2="33.87" y2="103.27" gradientUnits="userSpaceOnUse">
			<stop offset="0" stop-color="#fff" />
			<stop offset="0.23" stop-color="#cccccd" />
			<stop offset="0.46" stop-color="#9f9fa1" />
			<stop offset="0.66" stop-color="#7e7f81" />
			<stop offset="0.84" stop-color="#6a6b6d" />
			<stop offset="0.95" stop-color="#636466" />
		</linearGradient>
		<radialGradient id="radial-gradient" cx="33.55" cy="102.2" r="1.43" gradientUnits="userSpaceOnUse">
			<stop offset="0" stop-color="#575757" />
			<stop offset="0.2" stop-color="#4b4b4b" />
			<stop offset="0.69" stop-color="#343434" />
			<stop offset="1" stop-color="#2b2b2b" />
		</radialGradient>
		<linearGradient id="linear-gradient-12" x1="28.94" y1="95.07" x2="36.55" y2="93.38" xlink:href="#linear-gradient-10" />
		<linearGradient id="linear-gradient-13" x1="28.49" y1="93.71" x2="36.11" y2="92.02" xlink:href="#linear-gradient-10" />
		<radialGradient id="radial-gradient-2" cx="35.46" cy="100.28" r="2.92" gradientUnits="userSpaceOnUse">
			<stop offset="0" stop-color="#5e5e5e" />
			<stop offset="0.45" stop-color="#2c2c2c" />
			<stop offset="0.8" stop-color="#0c0c0c" />
			<stop offset="1" />
		</radialGradient>
		<linearGradient id="linear-gradient-14" x1="32.14" y1="83.64" x2="38.61" y2="82.76" gradientUnits="userSpaceOnUse">
			<stop offset="0" />
			<stop offset="0.2" stop-color="#0c0c0c" />
			<stop offset="0.55" stop-color="#2c2c2c" />
			<stop offset="1" stop-color="#5e5e5e" />
		</linearGradient>
		<linearGradient id="linear-gradient-15" x1="32.14" y1="83.64" x2="38.61" y2="82.76" xlink:href="#linear-gradient-14" />
		<linearGradient id="Live" x1="34.13" y1="26.33" x2="40.64" y2="26.33" gradientUnits="userSpaceOnUse">
			<stop offset="0" stop-color="#5e5e5e" />
			<stop offset="1" stop-color="#5e5e5e" />
		</linearGradient>
		<linearGradient id="linear-gradient-16" x1="37.4" y1="27.03" x2="37.4" y2="29.74" gradientUnits="userSpaceOnUse">
			<stop offset="0" />
			<stop offset="0.64" stop-color="#212121" />
			<stop offset="1" stop-color="#363636" />
		</linearGradient>
		<linearGradient id="Live-2" x1="34.13" y1="26.33" x2="40.64" y2="26.33" xlink:href="#Live" />
		<linearGradient id="Live-3" x1="-2843.37" y1="26.33" x2="-2849.89" y2="26.33" gradientTransform="matrix(-1, 0, 0, 1, -2834.2, 0)" xlink:href="#Live" />
		<linearGradient id="linear-gradient-17" x1="-2846.62" y1="27.03" x2="-2846.62" y2="29.74" gradientTransform="matrix(-1, 0, 0, 1, -2834.2, 0)" xlink:href="#linear-gradient-16" />
		<linearGradient id="Live-4" x1="-3334.59" y1="26.33" x2="-3341.1" y2="26.33" gradientTransform="matrix(-1, 0, 0, 1, -3325.42, 0)" xlink:href="#Live" />
		<linearGradient id="linear-gradient-18" x1="-2625.6" y1="217.7" x2="-2625.6" y2="230.61" gradientTransform="translate(-2601.1 341.28) rotate(180)" gradientUnits="userSpaceOnUse">
			<stop offset="0" stop-color="#171717" />
			<stop offset="1" />
		</linearGradient>
		<linearGradient id="linear-gradient-19" x1="24.3" y1="90.16" x2="24.3" y2="114.8" gradientUnits="userSpaceOnUse">
			<stop offset="0" />
			<stop offset="0.34" stop-color="#0e0e0e" />
			<stop offset="0.97" stop-color="#343434" />
			<stop offset="1" stop-color="#363636" />
		</linearGradient>
		<linearGradient id="linear-gradient-20" x1="15.06" y1="61.5" x2="15.66" y2="61.5" gradientUnits="userSpaceOnUse">
			<stop offset="0" stop-color="#fff" />
			<stop offset="0.18" stop-color="#cccccd" />
			<stop offset="0.36" stop-color="#9f9fa1" />
			<stop offset="0.53" stop-color="#7e7f81" />
			<stop offset="0.66" stop-color="#6a6b6d" />
			<stop offset="0.75" stop-color="#636466" />
		</linearGradient>
		<linearGradient id="linear-gradient-21" x1="15.1" y1="64.71" x2="16" y2="64.71" xlink:href="#linear-gradient-20" />
		<linearGradient id="linear-gradient-22" x1="11.98" y1="68.41" x2="11.98" y2="64.93" gradientUnits="userSpaceOnUse">
			<stop offset="0" />
			<stop offset="0.14" stop-color="#0e0e0e" />
			<stop offset="0.35" stop-color="#1c1c1c" />
			<stop offset="0.52" stop-color="#212121" />
			<stop offset="0.68" stop-color="#1c1c1c" />
			<stop offset="0.89" stop-color="#0c0c0c" />
			<stop offset="1" />
		</linearGradient>
		<linearGradient id="linear-gradient-23" x1="17.27" y1="68.54" x2="17.27" y2="65.41" xlink:href="#linear-gradient-20" />
		<linearGradient id="linear-gradient-24" x1="36.62" y1="68.27" x2="36.62" y2="64.42" xlink:href="#linear-gradient-22" />
		<linearGradient id="linear-gradient-25" x1="31.33" y1="68.42" x2="31.33" y2="65.24" xlink:href="#linear-gradient-20" />
		<linearGradient id="linear-gradient-26" x1="15.67" y1="58.84" x2="11.67" y2="58.84" gradientUnits="userSpaceOnUse">
			<stop offset="0" />
			<stop offset="0.26" stop-color="#0e0e0e" />
			<stop offset="0.66" stop-color="#1c1c1c" />
			<stop offset="1" stop-color="#212121" />
		</linearGradient>
		<linearGradient id="linear-gradient-27" x1="25.19" y1="61.69" x2="34.91" y2="61.69" gradientUnits="userSpaceOnUse">
			<stop offset="0" />
			<stop offset="0.4" stop-color="#030303" />
			<stop offset="0.69" stop-color="#0c0c0c" />
			<stop offset="0.94" stop-color="#1c1c1c" />
			<stop offset="1" stop-color="#212121" />
		</linearGradient>
		<linearGradient id="linear-gradient-28" x1="15.41" y1="61.69" x2="23.44" y2="61.69" gradientUnits="userSpaceOnUse">
			<stop offset="0" stop-color="#212121" />
			<stop offset="0.09" stop-color="#141414" />
			<stop offset="0.24" stop-color="#090909" />
			<stop offset="0.44" stop-color="#020202" />
			<stop offset="1" />
		</linearGradient>
		<linearGradient id="Live-5" x1="24.97" y1="88.31" x2="33.9" y2="88.31" xlink:href="#Live" />
		<linearGradient id="Live-6" x1="12.96" y1="88.31" x2="23.44" y2="88.31" xlink:href="#Live" />
		<linearGradient id="Live-7" x1="12.69" y1="51.29" x2="37.02" y2="51.29" xlink:href="#Live" />
		<linearGradient id="Live-8" x1="20.08" y1="38.6" x2="24.04" y2="38.6" xlink:href="#Live" />
		<linearGradient id="Live-9" x1="20.93" y1="38.6" x2="30.8" y2="38.6" xlink:href="#Live" />
		<linearGradient id="Live-10" x1="27.99" y1="38.6" x2="31.95" y2="38.6" xlink:href="#Live" />
		<linearGradient id="linear-gradient-29" x1="21.22" y1="49.33" x2="27.17" y2="49.33" xlink:href="#linear-gradient-20" />
		<radialGradient id="radial-gradient-3" cx="24.2" cy="49.33" r="2.16" xlink:href="#radial-gradient" />
		<linearGradient id="linear-gradient-30" x1="24.61" y1="-0.39" x2="24.61" y2="18.23" gradientTransform="matrix(1, 0, 0, 1, 0, 0)" xlink:href="#linear-gradient-18" />
		<linearGradient id="Live-11" x1="20.4" y1="13.86" x2="27.46" y2="13.86" xlink:href="#Live" />
		<linearGradient id="Live-12" x1="21.74" y1="13.61" x2="27.23" y2="13.61" xlink:href="#Live" />
		<linearGradient id="Live-13" x1="23.68" y1="13.86" x2="25.78" y2="13.86" xlink:href="#Live" />
		<linearGradient id="linear-gradient-31" x1="11.53" y1="36.29" x2="37.39" y2="36.29" gradientUnits="userSpaceOnUse">
			<stop offset="0" stop-color="#121212" />
			<stop offset="0.24" stop-color="#0f0f0f" />
			<stop offset="0.44" stop-color="#040404" />
			<stop offset="0.5" />
			<stop offset="0.53" stop-color="#030303" />
			<stop offset="0.76" stop-color="#0e0e0e" />
			<stop offset="1" stop-color="#121212" />
		</linearGradient>
		<linearGradient id="Live-14" x1="10.98" y1="39.17" x2="20.14" y2="39.17" xlink:href="#Live" />
		<linearGradient id="Live-15" x1="28.73" y1="39.15" x2="37.99" y2="39.15" xlink:href="#Live" />
		<linearGradient id="Live-16" x1="14.76" y1="25.42" x2="39.43" y2="25.42" xlink:href="#Live" />
		<filter id="luminosity-noclip-10" x="28.68" y="15.57" width="3.47" height="6.89" filterUnits="userSpaceOnUse" color-interpolation-filters="sRGB">
			<feFlood flood-color="#fff" result="bg" />
			<feBlend in="SourceGraphic" in2="bg" />
		</filter>
		<mask id="mask-10" x="28.68" y="15.57" width="3.47" height="6.89" maskUnits="userSpaceOnUse">
			<g mask="url(#mask)" filter="url(#luminosity-noclip-10)">
				<path d="M32.1,21.34a29.37,29.37,0,0,1,0-3.58,26.53,26.53,0,0,0-3.47-2.19c.36,1,.81,2.1,1.35,3.23C31.44,21.78,32.22,23.85,32.1,21.34Z" fill="url(#linear-gradient)" style="mix-blend-mode:multiply" />
			</g>
		</mask>
		<linearGradient id="Live-17" x1="29.46" y1="19.02" x2="32.28" y2="19.02" xlink:href="#Live" />
		<filter id="luminosity-noclip-11" x="17.02" y="15.36" width="4.36" height="6.85" filterUnits="userSpaceOnUse" color-interpolation-filters="sRGB">
			<feFlood flood-color="#fff" result="bg" />
			<feBlend in="SourceGraphic" in2="bg" />
		</filter>
		<mask id="mask-11" x="17.02" y="15.36" width="4.36" height="6.85" maskUnits="userSpaceOnUse">
			<g mask="url(#mask-6)" filter="url(#luminosity-noclip-11)">
				<path d="M19.85,18.38c.61-1.13,1.12-2.15,1.52-3a27.81,27.81,0,0,0-3.59,2.28c-.18,1.12-.41,2.42-.65,3.51C16.56,23.67,18.28,21.27,19.85,18.38Z" fill="url(#linear-gradient-6)" style="mix-blend-mode:multiply" />
			</g>
		</mask>
		<linearGradient id="Live-18" x1="17.02" y1="18.79" x2="21.37" y2="18.79" xlink:href="#Live" />
		<filter id="luminosity-noclip-12" x="13.22" y="18.32" width="3.82" height="13.71" filterUnits="userSpaceOnUse" color-interpolation-filters="sRGB">
			<feFlood flood-color="#fff" result="bg" />
			<feBlend in="SourceGraphic" in2="bg" />
		</filter>
		<mask id="mask-12" x="13.22" y="18.32" width="3.82" height="13.71" maskUnits="userSpaceOnUse">
			<g mask="url(#mask-7)" filter="url(#luminosity-noclip-12)">
				<path d="M16.82,18.32a10.71,10.71,0,0,0-2.92,3.14c-1.09,2.39-.54,9.07-.54,9.07l.88.84s.26.26.63.66c.39-2.37,1.35-5.05,1.86-7.49A17.92,17.92,0,0,0,16.82,18.32Z" fill="url(#linear-gradient-7)" style="mix-blend-mode:multiply" />
			</g>
		</mask>
		<linearGradient id="Live-19" x1="13.79" y1="25.18" x2="17.18" y2="25.18" xlink:href="#Live" />
		<filter id="luminosity-noclip-13" x="32.42" y="18.01" width="4.05" height="14.49" filterUnits="userSpaceOnUse" color-interpolation-filters="sRGB">
			<feFlood flood-color="#fff" result="bg" />
			<feBlend in="SourceGraphic" in2="bg" />
		</filter>
		<mask id="mask-13" x="32.42" y="18.01" width="4.05" height="14.49" maskUnits="userSpaceOnUse">
			<g mask="url(#mask-8)" filter="url(#luminosity-noclip-13)">
				<path d="M35.79,21.46A11.85,11.85,0,0,0,32.47,18a24.34,24.34,0,0,0,.41,6.39,60.1,60.1,0,0,1,1.53,8.09c.58-.63,1.05-1.12,1.05-1.12l.87-.84S36.88,23.85,35.79,21.46Z" fill="url(#linear-gradient-8)" style="mix-blend-mode:multiply" />
			</g>
		</mask>
		<linearGradient id="Live-20" x1="32.42" y1="25.25" x2="36.39" y2="25.25" xlink:href="#Live" />
		<linearGradient id="Live-21" x1="13.01" y1="29.56" x2="16.16" y2="29.56" xlink:href="#Live" />
		<linearGradient id="Live-22" x1="32.52" y1="29.44" x2="36.33" y2="29.44" xlink:href="#Live" />
		<linearGradient id="linear-gradient-32" x1="9.91" y1="34.39" x2="8.53" y2="30.56" xlink:href="#linear-gradient-10" />
		<linearGradient id="linear-gradient-33" x1="9.91" y1="34.39" x2="8.53" y2="30.56" xlink:href="#linear-gradient-10" />
		<linearGradient id="linear-gradient-34" x1="16.6" y1="32.89" x2="14.58" y2="28.1" gradientUnits="userSpaceOnUse">
			<stop offset="0" />
			<stop offset="0.25" stop-color="#060606" />
			<stop offset="0.59" stop-color="#181818" />
			<stop offset="0.98" stop-color="#343434" />
			<stop offset="1" stop-color="#363636" />
		</linearGradient>
		<linearGradient id="linear-gradient-35" x1="39.89" y1="34.15" x2="40.96" y2="30.7" xlink:href="#linear-gradient-10" />
		<linearGradient id="linear-gradient-36" x1="39.89" y1="34.15" x2="40.96" y2="30.7" xlink:href="#linear-gradient-10" />
		<linearGradient id="linear-gradient-37" x1="33.07" y1="33.07" x2="34.6" y2="28.07" xlink:href="#linear-gradient-34" />
		<linearGradient id="linear-gradient-38" x1="34.48" y1="33.01" x2="33.23" y2="35.53" xlink:href="#linear-gradient-20" />
		<linearGradient id="linear-gradient-39" x1="34.48" y1="33.01" x2="33.23" y2="35.53" xlink:href="#linear-gradient-20" />
		<linearGradient id="linear-gradient-40" x1="15.07" y1="33.01" x2="16.13" y2="35.59" xlink:href="#linear-gradient-20" />
		<linearGradient id="linear-gradient-41" x1="15.07" y1="33.01" x2="16.13" y2="35.59" xlink:href="#linear-gradient-20" />
		<linearGradient id="linear-gradient-42" x1="24.48" y1="33.19" x2="24.48" y2="36.17" gradientUnits="userSpaceOnUse">
			<stop offset="0.23" stop-color="#2b2b2b" />
			<stop offset="0.39" stop-color="#242424" />
			<stop offset="0.61" stop-color="#101010" />
			<stop offset="0.76" />
		</linearGradient>
		<linearGradient id="linear-gradient-43" x1="24.45" y1="31.55" x2="24.45" y2="40.87" gradientUnits="userSpaceOnUse">
			<stop offset="0.09" stop-color="#636466" />
			<stop offset="0.17" stop-color="#6a6b6d" />
			<stop offset="0.29" stop-color="#7d7f81" />
			<stop offset="0.43" stop-color="#9d9fa2" />
			<stop offset="0.45" stop-color="#a3a5a8" />
			<stop offset="0.48" stop-color="#989a9d" />
			<stop offset="0.58" stop-color="#7b7c7f" />
			<stop offset="0.65" stop-color="#696a6d" />
			<stop offset="0.71" stop-color="#636466" />
			<stop offset="0.76" stop-color="#5c5d5f" />
			<stop offset="0.83" stop-color="#49494b" />
			<stop offset="0.91" stop-color="#29292a" />
			<stop offset="1" />
		</linearGradient>
		<linearGradient id="linear-gradient-44" x1="18.61" y1="34.84" x2="18.61" y2="38.32" gradientUnits="userSpaceOnUse">
			<stop offset="0.25" stop-color="#171717" />
			<stop offset="0.37" stop-color="#1e1e1e" />
			<stop offset="0.55" stop-color="#323232" />
			<stop offset="0.76" stop-color="#535353" />
			<stop offset="1" stop-color="gray" />
			<stop offset="1" stop-color="gray" />
		</linearGradient>
		<linearGradient id="linear-gradient-45" x1="18.61" y1="34.73" x2="18.61" y2="37.3" gradientUnits="userSpaceOnUse">
			<stop offset="0" stop-color="#292929" />
			<stop offset="0" stop-color="#292929" />
			<stop offset="0.36" stop-color="#121212" />
			<stop offset="0.7" stop-color="#050505" />
			<stop offset="1" />
		</linearGradient>
		<linearGradient id="linear-gradient-46" x1="30.58" y1="34.84" x2="30.58" y2="38.32" xlink:href="#linear-gradient-44" />
		<linearGradient id="linear-gradient-47" x1="30.58" y1="34.73" x2="30.58" y2="37.3" xlink:href="#linear-gradient-45" />
		<linearGradient id="linear-gradient-48" x1="24.56" y1="34.84" x2="24.56" y2="38.32" xlink:href="#linear-gradient-44" />
		<linearGradient id="linear-gradient-49" x1="24.56" y1="34.73" x2="24.56" y2="37.3" xlink:href="#linear-gradient-45" />
		<linearGradient id="linear-gradient-50" x1="6.48" y1="36.95" x2="7.45" y2="39.52" gradientTransform="translate(14.52 0.11) rotate(21.51)" gradientUnits="userSpaceOnUse">
			<stop offset="0" />
			<stop offset="0.09" stop-color="#0c0c0c" />
			<stop offset="0.24" stop-color="#2c2c2c" />
			<stop offset="0.44" stop-color="#5e5e5e" />
			<stop offset="0.51" stop-color="#474747" />
			<stop offset="0.61" stop-color="#303030" />
			<stop offset="0.72" stop-color="#202020" />
			<stop offset="0.84" stop-color="#171717" />
			<stop offset="1" stop-color="#141414" />
		</linearGradient>
		<linearGradient id="linear-gradient-51" x1="11.9" y1="33.98" x2="13.36" y2="38" gradientUnits="userSpaceOnUse">
			<stop offset="0" stop-color="#141414" />
			<stop offset="0.16" stop-color="#171717" />
			<stop offset="0.28" stop-color="#202020" />
			<stop offset="0.39" stop-color="#303030" />
			<stop offset="0.49" stop-color="#474747" />
			<stop offset="0.56" stop-color="#5e5e5e" />
			<stop offset="0.76" stop-color="#2c2c2c" />
			<stop offset="0.91" stop-color="#0c0c0c" />
			<stop offset="1" />
		</linearGradient>
		<linearGradient id="linear-gradient-52" x1="12.62" y1="35.88" x2="11.64" y2="33.64" gradientUnits="userSpaceOnUse">
			<stop offset="0" stop-color="#1a1a1a" />
			<stop offset="1" stop-color="#212121" />
		</linearGradient>
		<radialGradient id="radial-gradient-4" cx="12.27" cy="35.14" r="1.13" gradientUnits="userSpaceOnUse">
			<stop offset="0" stop-color="#8c8c8c" />
			<stop offset="0.39" stop-color="#6c6c6c" />
			<stop offset="0.77" stop-color="#535353" />
			<stop offset="1" stop-color="#4a4a4a" />
		</radialGradient>
		<linearGradient id="linear-gradient-53" x1="-117.55" y1="-43.18" x2="-117.14" y2="-42.06" gradientTransform="matrix(1.08, 0.03, 0.03, 1.16, 141.29, 90.17)" xlink:href="#linear-gradient-52" />
		<linearGradient id="linear-gradient-54" x1="12.81" y1="36.4" x2="13.22" y2="37.53" gradientTransform="translate(13.83 -2.22) rotate(20.52)" gradientUnits="userSpaceOnUse">
			<stop offset="0" stop-color="#8c8c8c" />
			<stop offset="0.16" stop-color="#787878" />
			<stop offset="0.53" stop-color="#505050" />
			<stop offset="0.82" stop-color="#373737" />
			<stop offset="1" stop-color="#2e2e2e" />
		</linearGradient>
		<linearGradient id="linear-gradient-55" x1="-2800.73" y1="627.09" x2="-2799.76" y2="629.66" gradientTransform="translate(484.44 -2797.46) rotate(-68.5)" xlink:href="#linear-gradient-50" />
		<linearGradient id="linear-gradient-56" x1="-2795.31" y1="624.12" x2="-2793.85" y2="628.14" gradientTransform="matrix(-0.73, -0.68, 0.68, -0.73, -2438.68, -1403.78)" xlink:href="#linear-gradient-51" />
		<linearGradient id="linear-gradient-57" x1="-2731.29" y1="541.56" x2="-2730.89" y2="542.69" gradientTransform="matrix(-0.77, -0.76, 0.76, -0.87, -2480.38, -1566.28)" xlink:href="#linear-gradient-52" />
		<linearGradient id="linear-gradient-58" x1="-2794.27" y1="626.83" x2="-2793.87" y2="627.96" gradientTransform="translate(429.13 -2802.06) rotate(-69.48)" xlink:href="#linear-gradient-54" />
		<linearGradient id="linear-gradient-59" x1="21.62" y1="68.84" x2="22.23" y2="67.43" gradientTransform="matrix(1.02, -0.04, -0.04, 1.08, 16.74, -36.19)" gradientUnits="userSpaceOnUse">
			<stop offset="0" stop-color="#212121" />
			<stop offset="1" stop-color="#1a1a1a" />
		</linearGradient>
		<linearGradient id="linear-gradient-60" x1="36.85" y1="35.99" x2="36.21" y2="37.45" gradientTransform="matrix(1, 0, 0, 1, 0, 0)" xlink:href="#linear-gradient-54" />
		<linearGradient id="linear-gradient-61" x1="19.99" y1="18.58" x2="29.87" y2="18.58" gradientUnits="userSpaceOnUse">
			<stop offset="0" />
			<stop offset="0.17" stop-color="#0e0e0e" />
			<stop offset="0.49" stop-color="#343434" />
			<stop offset="0.5" stop-color="#363636" />
			<stop offset="0.83" stop-color="#0f0f0f" />
			<stop offset="1" />
		</linearGradient>
		<linearGradient id="linear-gradient-62" x1="17.93" y1="26.52" x2="31.31" y2="26.52" xlink:href="#linear-gradient-61" />
		<linearGradient id="linear-gradient-63" x1="16.67" y1="25.6" x2="32.28" y2="25.6" xlink:href="#linear-gradient-19" />
		<radialGradient id="radial-gradient-5" cx="29.24" cy="25.13" r="9.07" gradientUnits="userSpaceOnUse">
			<stop offset="0" stop-color="#363636" />
			<stop offset="0.2" stop-color="#212121" />
			<stop offset="0.45" stop-color="#0e0e0e" />
			<stop offset="0.71" stop-color="#040404" />
			<stop offset="1" />
		</radialGradient>
		<radialGradient id="radial-gradient-6" cx="16.08" cy="22.11" r="4.41" gradientUnits="userSpaceOnUse">
			<stop offset="0" stop-color="#171717" />
			<stop offset="0.66" stop-color="#1d1b1c" />
			<stop offset="1" stop-color="#231f20" />
		</radialGradient>
		<linearGradient id="linear-gradient-64" x1="14.01" y1="25.67" x2="16.33" y2="21.99" gradientUnits="userSpaceOnUse">
			<stop offset="0.01" stop-color="#171717" />
			<stop offset="0.36" stop-color="#1d1d1d" />
			<stop offset="0.86" stop-color="#2f2f2f" />
			<stop offset="1" stop-color="#363636" />
		</linearGradient>
		<linearGradient id="linear-gradient-65" x1="-18.81" y1="17.01" x2="-16.83" y2="13.87" gradientTransform="matrix(1.02, 0.01, 0.01, 1, 33.17, 8.33)" xlink:href="#linear-gradient-64" />
		<linearGradient id="Live-23" x1="8.39" y1="22.14" x2="15.48" y2="22.14" xlink:href="#Live" />
		<linearGradient id="Live-24" x1="8.39" y1="21.31" x2="15.48" y2="21.31" xlink:href="#Live" />
		<linearGradient id="Live-25" x1="0.13" y1="21.19" x2="8.67" y2="21.19" xlink:href="#Live" />
		<linearGradient id="Live-26" x1="0.55" y1="22.6" x2="9.97" y2="22.6" xlink:href="#Live" />
		<linearGradient id="Live-27" x1="0" y1="21.32" x2="10.06" y2="21.32" xlink:href="#Live" />
		<filter id="luminosity-noclip-14" x="1.73" y="18.81" width="6.58" height="4.49" filterUnits="userSpaceOnUse" color-interpolation-filters="sRGB">
			<feFlood flood-color="#fff" result="bg" />
			<feBlend in="SourceGraphic" in2="bg" />
		</filter>
		<mask id="mask-14" x="1.73" y="18.81" width="6.58" height="4.49" maskUnits="userSpaceOnUse">
			<g mask="url(#mask-9)" filter="url(#luminosity-noclip-14)">
				<path d="M2.57,20.55c.45-.42,2.64-2.41,4.75-1.5S8,23.46,4.42,23.3,1.55,21.5,2.57,20.55Z" fill="url(#linear-gradient-9)" style="mix-blend-mode:multiply" />
			</g>
		</mask>
		<linearGradient id="Live-28" x1="-1.13" y1="21.06" x2="9.99" y2="21.06" xlink:href="#Live" />
		<radialGradient id="radial-gradient-7" cx="-2598.18" cy="22.11" r="4.41" gradientTransform="matrix(-1, 0, 0, 1, -2564.52, 0)" xlink:href="#radial-gradient-6" />
		<linearGradient id="linear-gradient-66" x1="-2600.26" y1="25.67" x2="-2597.93" y2="21.99" gradientTransform="matrix(-1, 0, 0, 1, -2564.52, 0)" xlink:href="#linear-gradient-64" />
		<linearGradient id="linear-gradient-67" x1="-2574.13" y1="31.82" x2="-2572.15" y2="28.68" gradientTransform="matrix(-1.02, 0.01, -0.01, 1, -2597.69, 8.33)" xlink:href="#linear-gradient-64" />
		<linearGradient id="Live-29" x1="-2598.78" y1="22.14" x2="-2605.87" y2="22.14" gradientTransform="matrix(-1, 0, 0, 1, -2564.52, 0)" xlink:href="#Live" />
		<linearGradient id="Live-30" x1="34.26" y1="21.31" x2="41.35" y2="21.31" xlink:href="#Live" />
		<linearGradient id="Live-31" x1="-2604.33" y1="21.19" x2="-2612.87" y2="21.19" gradientTransform="matrix(-1, 0, 0, 1, -2564.52, 0)" xlink:href="#Live" />
		<linearGradient id="Live-32" x1="39.77" y1="22.6" x2="49.2" y2="22.6" xlink:href="#Live" />
		<linearGradient id="Live-33" x1="39.68" y1="21.32" x2="49.74" y2="21.32" xlink:href="#Live" />
		<filter id="luminosity-noclip-15" x="41.44" y="18.81" width="6.58" height="4.49" filterUnits="userSpaceOnUse" color-interpolation-filters="sRGB">
			<feFlood flood-color="#fff" result="bg" />
			<feBlend in="SourceGraphic" in2="bg" />
		</filter>
		<mask id="mask-15" x="41.44" y="18.81" width="6.58" height="4.49" maskUnits="userSpaceOnUse">
			<g mask="url(#mask-2)" filter="url(#luminosity-noclip-15)">
				<path d="M47.17,20.55c-.44-.42-2.63-2.41-4.74-1.5s-.73,4.41,2.89,4.25S48.2,21.5,47.17,20.55Z" fill="url(#linear-gradient-2)" style="mix-blend-mode:multiply" />
			</g>
		</mask>
		<linearGradient id="Live-34" x1="-2603.1" y1="21.06" x2="-2614.21" y2="21.06" gradientTransform="matrix(-1, 0, 0, 1, -2564.52, 0)" xlink:href="#Live" />
		<linearGradient id="Live-35" x1="14.52" y1="88.31" x2="23.44" y2="88.31" xlink:href="#Live" />
		<linearGradient id="Live-36" x1="18.38" y1="97.12" x2="30.63" y2="97.12" xlink:href="#Live" />
		<linearGradient id="Live-37" x1="19.37" y1="97.08" x2="29.02" y2="97.08" xlink:href="#Live" />
		<linearGradient id="Live-38" x1="21.72" y1="97.18" x2="26.86" y2="97.18" xlink:href="#Live" />
		<linearGradient id="linear-gradient-68" x1="17.63" y1="91.39" x2="31.66" y2="91.39" gradientUnits="userSpaceOnUse">
			<stop offset="0" stop-color="#999999" />
			<stop offset="1" stop-color="#999999" />
		</linearGradient>
		<linearGradient id="linear-gradient-69" x1="14.06" y1="77.31" x2="35.52" y2="77.31" xlink:href="#linear-gradient-22" />
		<linearGradient id="linear-gradient-70" x1="14.06" y1="76.48" x2="35.52" y2="76.48" xlink:href="#linear-gradient-22" />
		<linearGradient id="linear-gradient-71" x1="14.06" y1="77.08" x2="35.52" y2="77.08" xlink:href="#linear-gradient-22" />
		<linearGradient id="linear-gradient-72" x1="14.06" y1="65.48" x2="35.52" y2="65.48" xlink:href="#linear-gradient-22" />
		<linearGradient id="linear-gradient-73" x1="14.06" y1="90.84" x2="35.52" y2="90.84" xlink:href="#linear-gradient-22" />
		<filter id="luminosity-noclip-16" x="37.27" y="25.53" width="3.11" height="1.23" filterUnits="userSpaceOnUse" color-interpolation-filters="sRGB">
			<feFlood flood-color="#fff" result="bg" />
			<feBlend in="SourceGraphic" in2="bg" />
		</filter>
		<mask id="mask-16" x="37.27" y="25.53" width="3.11" height="1.23" maskUnits="userSpaceOnUse">
			<g mask="url(#mask-3)" filter="url(#luminosity-noclip-16)">
				<path d="M37.9,25.54a15.76,15.76,0,0,1,2.39.78c.31.2-.23.59-1.79.39S37,25.43,37.9,25.54Z" fill="url(#linear-gradient-3)" style="mix-blend-mode:multiply" />
			</g>
		</mask>
		<linearGradient id="Live-39" x1="35.48" y1="26.15" x2="41.93" y2="26.15" xlink:href="#Live" />
		<filter id="luminosity-noclip-17" x="9.48" y="25.55" width="3.11" height="1.23" filterUnits="userSpaceOnUse" color-interpolation-filters="sRGB">
			<feFlood flood-color="#fff" result="bg" />
			<feBlend in="SourceGraphic" in2="bg" />
		</filter>
		<mask id="mask-17" x="9.48" y="25.55" width="3.11" height="1.23" maskUnits="userSpaceOnUse">
			<g mask="url(#mask-4)" filter="url(#luminosity-noclip-17)">
				<path d="M12,25.56a15.76,15.76,0,0,0-2.39.78c-.31.2.23.59,1.79.39S12.85,25.45,12,25.56Z" fill="url(#linear-gradient-4)" style="mix-blend-mode:multiply" />
			</g>
		</mask>
		<linearGradient id="Live-40" x1="-3308.34" y1="26.17" x2="-3314.79" y2="26.17" gradientTransform="matrix(-1, 0, 0, 1, -3300.65, 0)" xlink:href="#Live" />
		<linearGradient id="linear-gradient-74" x1="15.67" y1="58.84" x2="11.67" y2="58.84" xlink:href="#linear-gradient-26" />
		<mask id="mask-18" x="18.79" y="66.6" width="11.12" height="24.08" maskUnits="userSpaceOnUse">
			<g mask="url(#mask-5)">
				<path d="M29.42,72.61c-2.1-2.1-1.86-4-2-5.36s-.08-.34-2.17-.15l-.91,0-.9,0c-2.09-.19-2.06-1.11-2.18.15s.12,3.26-2,5.36c-.85.88-.41,12.56-.15,18.07a34.17,34.17,0,0,1,4.31-.24h1.81a34,34,0,0,1,4.3.24C29.82,85.17,30.27,73.49,29.42,72.61Z" fill="url(#linear-gradient-5)" style="mix-blend-mode:multiply" />
			</g>
		</mask>
		<linearGradient id="linear-gradient-75" x1="14.56" y1="78.53" x2="29.8" y2="78.72" gradientUnits="userSpaceOnUse">
			<stop offset="0" stop-color="#fff" />
			<stop offset="0.75" stop-color="#fff" />
		</linearGradient>
	</defs>
	<g style="isolation:isolate">
		<g id="Layer_1_copy" data-name="Layer 1 copy">
			<path d="M37.14,99.44l-.09-.62-1-1L34,87.19l-5.29,1.65s.62,5.16.75,6.57.57,5.35,1.29,6.38a3.08,3.08,0,0,0,2.93,1.43,3.48,3.48,0,0,0,2.95-1.52h0A3.21,3.21,0,0,0,37.14,99.44Z" fill="url(#linear-gradient-10)" />
			<path d="M36,101.83c0,.75-1,1.36-2.28,1.36s-2.29-.61-2.29-1.36,1-1.36,2.29-1.36S36,101.08,36,101.83Z" fill="url(#linear-gradient-11)" />
			<path d="M35.32,102.2c0,.53-.79,1-1.77,1s-1.78-.42-1.78-1,.79-1,1.78-1S35.32,101.68,35.32,102.2Z" fill="url(#radial-gradient)" />
			<path d="M34.58,102.21c0,.26-.41.48-.9.48s-.9-.22-.9-.48.4-.48.9-.48S34.58,102,34.58,102.21Z" fill="#231f20" />
			<path d="M34.26,99.33a5.82,5.82,0,0,1,2.9.34c0-.07,0-.15,0-.23l-.09-.62-1-1L34,87.19l-5.29,1.65s.62,5.16.75,6.57a26.08,26.08,0,0,0,1.11,6C31,100.42,32.45,99.54,34.26,99.33Z" opacity="0.5" fill="url(#linear-gradient-12)" style="mix-blend-mode:multiply" />
			<path d="M32.59,96.44c.64,1.32,1.23,2.66,1.53,2.42,0-.08,2.56-.83,2.55-.91l-.09-.61-1-1-2-10.66-5.29,1.65s.62,5.16.75,6.57a26.17,26.17,0,0,0,1.11,6C30.62,101.45,31.8,94.79,32.59,96.44Z" opacity="0.5" fill="url(#linear-gradient-13)" style="mix-blend-mode:multiply" />
			<path d="M37.19,98.42A3.56,3.56,0,0,0,34,97.94l.12.93c2.2-.59,3.14.57,3.14.57A.6.6,0,0,0,37.19,98.42Z" fill="url(#radial-gradient-2)" />
			<path d="M37.19,98.42S37,88.07,36.43,84.73s-1-8.32-1.41-12.27-.65-4.38-2.35-4.33a2.79,2.79,0,0,0-2.3,1l2.46,20.16L34,97.94A3.56,3.56,0,0,1,37.19,98.42Z" fill="url(#linear-gradient-14)" />
			<path d="M35.37,92.82c-.24-2-1.22-16.41-1.88-21.44-.2-1.51.14-2.34.72-2.76-.32-.44-.78-.51-1.54-.49a2.79,2.79,0,0,0-2.3,1l2.46,20.16L34,97.94a3.56,3.56,0,0,1,3.23.48s0-.17,0-.47C35.6,98,35.57,94.51,35.37,92.82Z" opacity="0.3" fill="url(#linear-gradient-15)" style="mix-blend-mode:multiply" />
			<path d="M40.64,27.15v-.31c0-.15.06-.44-.78-.73s-1.63-.5-1.9-.57-2.2,0-2.2,0H34.13l0,1.63Z" fill="url(#Live)" />
			<path d="M40.64,27.15v1a.38.38,0,0,1-.38.37H34.53a.38.38,0,0,1-.38-.37v-1Z" fill="url(#linear-gradient-16)" />
			<path d="M40.78,27.21a.14.14,0,0,1-.14.14H36a.14.14,0,0,1-.14-.14h0a.14.14,0,0,1,.14-.14h4.61a.14.14,0,0,1,.14.14Z" fill="#231f20" />
			<path d="M36.8,26.11a1.48,1.48,0,0,1,.1-.61l-1.14,0H34.13l0,1.63h6.49v-.31a.92.92,0,0,0,0-.16C39.47,27,36.82,26.92,36.8,26.11Z" fill="url(#Live-2)" style="mix-blend-mode:multiply" />
			<path d="M9.17,27.15v-.31c0-.15-.06-.44.78-.73s1.63-.5,1.9-.57,2.2,0,2.2,0h1.63l0,1.63Z" fill="url(#Live-3)" />
			<path d="M9.17,27.15v1a.38.38,0,0,0,.38.37h5.73a.38.38,0,0,0,.38-.37v-1Z" fill="url(#linear-gradient-17)" />
			<path d="M9,27.21a.14.14,0,0,0,.14.14h4.61a.14.14,0,0,0,.14-.14h0a.14.14,0,0,0-.14-.14H9.17a.14.14,0,0,0-.14.14Z" fill="#231f20" />
			<path d="M13,26.11a1.66,1.66,0,0,0-.11-.61l1.14,0h1.63l0,1.63H9.17v-.31a.92.92,0,0,1,0-.16C10.35,27,13,26.92,13,26.11Z" fill="url(#Live-4)" style="mix-blend-mode:multiply" />
			<path d="M21.59,120a3.17,3.17,0,0,0,2.95,3.35A3.17,3.17,0,0,0,27.48,120c0-.11,0-13.92,0-13.92H21.58S21.59,119.84,21.59,120Z" fill="#231f20" />
			<path d="M22.17,120.72a2.48,2.48,0,0,0,2.34,2.59,2.48,2.48,0,0,0,2.34-2.59c0-.08,0-10.74,0-10.74H22.16S22.17,120.63,22.17,120.72Z" fill="url(#linear-gradient-18)" />
			<path d="M24.32,122.77l.11-.15.09-.15.18-.29.19-.29a1.86,1.86,0,0,1,.21-.28h0c.15-.16.31-.32.48-.47a3.33,3.33,0,0,1,.55-.42A3.27,3.27,0,0,1,26,121a1.78,1.78,0,0,1-.17.3,5.7,5.7,0,0,1-.42.55h0a4.51,4.51,0,0,1-.47.52,1.63,1.63,0,0,1-.29.23l-.16.09A1.27,1.27,0,0,1,24.32,122.77Z" fill="#434345" />
			<path d="M23.67,122.3a.76.76,0,0,1,.11-.14.64.64,0,0,1,.08-.14,1,1,0,0,1,.08-.14.64.64,0,0,1,.08-.14,1,1,0,0,1,.07-.15l.08-.15a3.09,3.09,0,0,1,.17-.29l.05-.08.05-.06.1-.14.23-.25.24-.23.23-.24h0l.1-.11a.17.17,0,0,1,.06-.06l0,0s0,0,0,0,0,0,0,.05,0,0,0,.07a.53.53,0,0,1,0,.17h0a1.22,1.22,0,0,1-.07.17.69.69,0,0,1-.07.15c-.06.1-.12.2-.19.3l-.19.26-.1.14-.05.06,0,.06a3.49,3.49,0,0,1-.42.53,1.55,1.55,0,0,1-.27.24,1.19,1.19,0,0,1-.15.09Z" fill="#434345" />
			<path d="M23.94,121.25a2.43,2.43,0,0,1-.33-.28,3,3,0,0,1-.28-.31,2.9,2.9,0,0,1-.27-.41,2.39,2.39,0,0,1-.13-.21l-.05-.11a.47.47,0,0,1-.05-.1,3.18,3.18,0,0,1-.17-.4,1.36,1.36,0,0,1,0-.17.44.44,0,0,1,0-.15s0-.07,0-.09v0a.22.22,0,0,0,.06.1,2.6,2.6,0,0,0,.19.22l.27.32.07.1.07.1.13.2c.08.14.16.29.22.42a2.2,2.2,0,0,1,.18.39A1.94,1.94,0,0,1,23.94,121.25Z" fill="#434345" />
			<path d="M24.53,120.14l-.1-.09a3,3,0,0,1-.24-.25l-.3-.38q-.15-.21-.3-.45c-.05-.08-.1-.16-.14-.24a1.71,1.71,0,0,1-.12-.23,1.63,1.63,0,0,1-.1-.25l-.08-.21-.06-.17-.06-.13-.05-.08,0,0h0l.09,0s.09,0,.13.1l.14.14.14.19.14.19.16.23.15.23c.09.16.18.32.26.48s.14.3.19.44a2.3,2.3,0,0,1,.1.33Z" fill="#434345" />
			<path d="M24.46,118.84a2.56,2.56,0,0,1,.21-.4c.07-.11.17-.24.26-.37l.32-.39.17-.19.17-.18.17-.16.15-.14a2.71,2.71,0,0,1,.34-.29,1.78,1.78,0,0,1-.15.43,1.63,1.63,0,0,1-.09.19l-.13.2c-.1.14-.2.28-.32.42l-.36.37a4,4,0,0,1-.36.28A2.73,2.73,0,0,1,24.46,118.84Z" fill="#434345" />
			<path d="M24.09,117.85a3.77,3.77,0,0,1,.28-.48,3.4,3.4,0,0,1,.28-.45c.09-.15.19-.3.29-.44s.2-.29.31-.43v0a.21.21,0,0,1,.05-.07l0-.06.09-.12.19-.21.2-.21.11-.1.1-.1s0,0,0,.07a.64.64,0,0,1,0,.07s0,.1,0,.14l-.11.27c0,.09-.09.17-.13.26l-.06.12,0,.06,0,0v0c-.09.16-.19.31-.29.46s-.22.29-.34.43l-.39.39A5.27,5.27,0,0,1,24.09,117.85Z" fill="#434345" />
			<path d="M24.13,116.77l-.27-.24a.8.8,0,0,1-.13-.13l-.12-.13a3.2,3.2,0,0,1-.22-.27,2.9,2.9,0,0,1-.19-.29,2.48,2.48,0,0,1-.18-.31l-.17-.3c-.1-.21-.2-.42-.29-.65h0v0l0,0,0-.07s0-.06,0-.08,0,0,0,0a0,0,0,0,1,0,0h0v0h0s0,0,0,0l.05.05.06,0,0,0,0,0h0a3.89,3.89,0,0,1,.46.53l.11.14.09.15.18.29c.05.1.1.2.16.3a1.82,1.82,0,0,0,.16.31c0,.06.05.11.07.16s0,.11.07.17A2,2,0,0,1,24.13,116.77Z" fill="#434345" />
			<path d="M24.78,115.73a3.39,3.39,0,0,1-.42-.33c-.07-.07-.12-.14-.18-.21A1.84,1.84,0,0,1,24,115a6.4,6.4,0,0,1-.52-.92v0a2.39,2.39,0,0,0-.13-.21,2.53,2.53,0,0,1-.12-.23l-.06-.12a.65.65,0,0,1,0-.13.64.64,0,0,0,0-.07s0,0,0,0l0-.07s0,0,0,0,0,0,0,0a0,0,0,0,1,0,0h0s0,0,0,0l.05,0a.15.15,0,0,1,.05.06l.05,0,.08.09.09.09c.05.05.12.11.17.17l.19.19v0a6.88,6.88,0,0,1,.52.91c.08.15.15.3.22.46A3.12,3.12,0,0,1,24.78,115.73Z" fill="#434345" />
			<path d="M24.61,114.6c.05-.11.11-.22.17-.33s.13-.2.21-.3a5,5,0,0,1,.51-.52,6.26,6.26,0,0,1,.57-.45,4.43,4.43,0,0,1,.6-.39h0s0,0,0,0,0,0,0,0h0l0,0,0,0h0a0,0,0,0,0,0,0h0l0,0h0a3.49,3.49,0,0,1-.42.61,4.93,4.93,0,0,1-.52.5,4.75,4.75,0,0,1-.55.43A3.62,3.62,0,0,1,24.61,114.6Z" fill="#434345" />
			<path d="M24.15,114c.05-.13.11-.25.17-.37a2.46,2.46,0,0,1,.22-.34,2.52,2.52,0,0,1,.24-.33l.25-.3a3.47,3.47,0,0,1,.25-.29l.13-.15.13-.15a6.06,6.06,0,0,1,.58-.55h0l0,0,0,0,.06,0,.06,0h0l0,0h0s0,0,0,0h0v0l0,.07,0,.06,0,0v0h0a4.28,4.28,0,0,1-.4.69l-.11.17-.12.15-.26.31-.28.29-.29.27-.15.12-.15.14Z" fill="#434345" />
			<path d="M15.39,90.05a30.08,30.08,0,0,0,2,6.39c1.17,2.26,1.93,8.28,2.87,11.57s1.17,6.63,4,6.58h0c2.87,0,3.11-3.29,4.05-6.58s1.69-9.31,2.87-11.57a30.45,30.45,0,0,0,2-6.39Z" fill="url(#linear-gradient-19)" />
			<path d="M19.74,98.44c.6,2,1.06,5.22,1.61,7.14.68,2.39.85,4.82,2.94,4.78h0c2.08,0,2.25-2.39,2.94-4.78.5-1.76.93-4.59,1.46-6.61C25.72,98.76,22.73,98.56,19.74,98.44Z" fill="#231f20" opacity="0.5" />
			<path d="M18.38,95.43c.78,1.73,1.38,4.44,2.1,6.07.89,2,1.11,4.09,3.82,4.06h0c2.72,0,2.94-2,3.83-4.06.66-1.49,1.22-3.9,1.91-5.62C26.17,95.71,22.28,95.53,18.38,95.43Z" fill="#231f20" opacity="0.5" />
			<path d="M25.94,110.75a2.36,2.36,0,0,1-1.5.65,2.35,2.35,0,0,1-1.49-.65c-.41-.41-1-.7-1,0s.44,2.72,2.44,2.77h0c2,0,2.41-2,2.45-2.77S26.34,110.34,25.94,110.75Z" fill="#231f20" opacity="0.5" />
			<path d="M20.74,104.06c-1.2-5.89-2.37-12.26-2.69-14H15.39a30.08,30.08,0,0,0,2,6.39c1.17,2.26,1.93,8.28,2.87,11.57.3,1,.52,2.09.78,3A19.41,19.41,0,0,0,20.74,104.06Z" fill="#231f20" opacity="0.2" />
			<path d="M27.85,104.06a19.51,19.51,0,0,0-.28,7c.26-1,.49-2,.79-3,.94-3.29,1.69-9.31,2.87-11.57a30.45,30.45,0,0,0,2-6.39H30.53C30.22,91.8,29.05,98.17,27.85,104.06Z" fill="#231f20" opacity="0.2" />
			<path d="M15.06,59.16l.17,4.52a.2.2,0,0,0,.2.18h.05a.19.19,0,0,0,.18-.19l-.18-4.51Z" fill="url(#linear-gradient-20)" />
			<rect x="15.1" y="63.68" width="0.89" height="2.07" fill="url(#linear-gradient-21)" />
			<path d="M9.68,65.69a.89.89,0,0,0-.83.94v.56a.89.89,0,0,0,.83.94H15.1V65.69Z" fill="url(#linear-gradient-22)" />
			<path d="M17.7,65.69H16v2.44h1.7a.9.9,0,0,0,.84-.94v-.56A.9.9,0,0,0,17.7,65.69Z" fill="url(#linear-gradient-23)" />
			<rect x="15.1" y="65.69" width="0.89" height="2.45" fill="#231f20" />
			<path d="M38.91,65.69a.9.9,0,0,1,.84.94v.56a.9.9,0,0,1-.84.94H33.49V65.69Z" fill="url(#linear-gradient-24)" />
			<path d="M30.89,65.69H32.6v2.44H30.89a.89.89,0,0,1-.83-.94v-.56A.89.89,0,0,1,30.89,65.69Z" fill="url(#linear-gradient-25)" />
			<rect x="32.6" y="65.69" width="0.89" height="2.45" fill="#231f20" />
			<path d="M15.54,59.26a.19.19,0,0,1-.19.19H12a.19.19,0,0,1-.19-.19v-.84a.18.18,0,0,1,.19-.18h3.36a.18.18,0,0,1,.19.18Z" fill="url(#linear-gradient-26)" />
			<path d="M32.42,72.79c-.5-2.2.79-21.82.79-21.82l-8-1.13v23.7h7.44A6.3,6.3,0,0,1,32.42,72.79Z" fill="url(#linear-gradient-27)" />
			<path d="M15.41,51s1.29,19.62.8,21.82q-.08.33-.21.75h7.44V49.84Z" fill="url(#linear-gradient-28)" />
			<path d="M32.63,73.54H25.19v29.53A5.06,5.06,0,0,0,28,101.44c7.78-13.6,7.66-17.43,7.66-19.18C35.66,80.68,33.43,76.05,32.63,73.54Z" fill="url(#Live-5)" />
			<path d="M13,82.26c0,1.75-.12,5.58,7.66,19.18a5.11,5.11,0,0,0,2.82,1.63V73.54H16C15.2,76.05,13,80.68,13,82.26Z" fill="url(#Live-6)" />
			<path d="M32.83,38.93c-1.83-4.23-8.27-3.11-8.27-3.11h-.78S17.73,34.7,16,38.93c0,0-2.34,6.55-2.08,9.92.23,2.95,4,13.07,5.7,15.33a8,8,0,0,0,2.17,2,3.67,3.67,0,0,0,2.36.77,3.48,3.48,0,0,0,1.26-.21A7.88,7.88,0,0,0,29,64.18C30.81,61.92,34.8,51.8,35,48.85,35.33,45.48,32.83,38.93,32.83,38.93Z" fill="url(#Live-7)" />
			<path d="M18.08,32.19s.55,8.31.64,10.37c.07,1.72.23,2.82,1.4,2.32l2.6-12.22Z" fill="url(#Live-8)" />
			<path d="M24.36,32.83l-1.64-.17-2.6,12.22a3.82,3.82,0,0,0,.87-.53c1.43-1.06,2.43-1.93,3.37-2s1.95.92,3.37,2c2,1.47,2.19.28,2.28-1.79s.64-10.37.64-10.37Z" fill="url(#Live-9)" />
			<path d="M30.63,32.19S30.08,40.5,30,42.56c-.07,1.72-.23,2.82-1.4,2.32L26,32.66Z" fill="url(#Live-10)" />
			<path d="M16.7,42.31c1.72-2.32,4.58-3.92,5.92-2.41a2.59,2.59,0,0,0,4.11,0c1.29-1.73,4.49.16,6.08,3.35a6.34,6.34,0,0,0,1.9,2.1,47.3,47.3,0,0,0-1.88-6.39c-1.83-4.23-8.27-3.11-8.27-3.11h-.78S17.73,34.7,16,38.93c0,0-.79,2.21-1.4,4.73A4.26,4.26,0,0,0,16.7,42.31Z" fill="#f7901e" opacity="0.5" style="mix-blend-mode:multiply" />
			<path d="M16.7,41.18c1.72-2.32,4.58-3.92,5.92-2.42a2.59,2.59,0,0,0,4.11,0c1.29-1.72,4.49.16,6.08,3.36a6.41,6.41,0,0,0,1.9,2.09,47.3,47.3,0,0,0-1.88-6.39c-1.83-4.23-8.27-3.11-8.27-3.11h-.78S17.73,33.56,16,37.79c0,0-.79,2.22-1.4,4.73A4.24,4.24,0,0,0,16.7,41.18Z" fill="#f7901e" style="mix-blend-mode:multiply" />
			<path d="M32.83,38.93a5.09,5.09,0,0,0-3.3-2.81c.47,1.87.24,3,1.37,4.12,4.33,4.43.89,23.85-6.63,23.85-5.33,0-11.19-16.6-8.23-20.84,1.12-1.6-.31-1.2-.76-2.07-.66,2.21-1.51,5.56-1.35,7.67.23,2.95,4,13.07,5.7,15.33a8,8,0,0,0,2.17,2,3.67,3.67,0,0,0,2.36.77,3.48,3.48,0,0,0,1.26-.21A7.88,7.88,0,0,0,29,64.18C30.81,61.92,34.8,51.8,35,48.85,35.33,45.48,32.83,38.93,32.83,38.93Z" fill="#a30d11" opacity="0.5" style="mix-blend-mode:multiply" />
			<path d="M27.63,49.3a3.46,3.46,0,1,1-3.45-3.46A3.44,3.44,0,0,1,27.63,49.3Z" fill="#c0c0bf" opacity="0.5" style="mix-blend-mode:multiply" />
			<path d="M27.3,49.34a3.13,3.13,0,1,1-3.12-3.12A3.13,3.13,0,0,1,27.3,49.34Z" fill="#c0c0bf" style="mix-blend-mode:multiply" />
			<path d="M27.17,49.33a3,3,0,1,1-3-3A3,3,0,0,1,27.17,49.33Z" fill="url(#linear-gradient-29)" />
			<path d="M26.35,49.33a2.16,2.16,0,1,1-2.15-2.16A2.15,2.15,0,0,1,26.35,49.33Z" fill="url(#radial-gradient-3)" />
			<path d="M25.89,49.34a1.7,1.7,0,1,0-3.39,0h3.39Z" />
			<path d="M24.2,51.13a1.8,1.8,0,0,1-1.8-1.79.09.09,0,0,1,0-.06.09.09,0,0,1,.07,0h3.39a.09.09,0,0,1,.07,0,.09.09,0,0,1,0,.06A1.8,1.8,0,0,1,24.2,51.13Zm-1.6-1.69a1.6,1.6,0,0,0,3.19,0Z" fill="#141414" />
			<path d="M23,49.61a1.1,1.1,0,0,0,2.2,0Z" fill="#fff" opacity="0.2" />
			<path d="M25.38,49.37a1.19,1.19,0,0,0-2.38,0h2.38Z" fill="#141414" />
			<path d="M32.83,38.93a4,4,0,0,0-.34-.65,40.74,40.74,0,0,0,1.37,6.48c1,2.54-.09,10.67-3.71,16.93s-8.56,5.12-11.24.19c-1.11-2.05-2.31-4.6-3.35-7,1.3,3.75,3,7.9,4.07,9.25a8,8,0,0,0,2.17,2,3.67,3.67,0,0,0,2.36.77,3.48,3.48,0,0,0,1.26-.21A7.88,7.88,0,0,0,29,64.18C30.81,61.92,34.8,51.8,35,48.85,35.33,45.48,32.83,38.93,32.83,38.93Z" fill="#a30d11" style="mix-blend-mode:multiply" />
			<path d="M26,43.6a2.41,2.41,0,0,0-2.85-.17,15.27,15.27,0,0,0-2.26,1.66,5.19,5.19,0,0,0-.53.52,3,3,0,0,0-.41.59,2,2,0,0,0-.24,1c0,.59.58.26.85.11a5.32,5.32,0,0,0,.85-.58,4.82,4.82,0,0,1,2.95-1.3,3.22,3.22,0,0,1,2.41,1c.36.39,1.74,1.69,1.93,1.22C29.21,46.43,26.92,44.18,26,43.6Z" fill="#fff" opacity="0.3" />
			<path d="M29.38,50.63a3.62,3.62,0,0,0-1.49.93,15.21,15.21,0,0,1-2,2.08,3.48,3.48,0,0,1-4.24-.44c-.72-.85-2.87-4-4.21-3.63-.68.19-1.2,1.31.77,7a10.75,10.75,0,0,0,4.24,5.56,3.17,3.17,0,0,0,3.38.08A8.35,8.35,0,0,0,28,59.75C29.18,58.07,32.49,49.81,29.38,50.63Z" fill="#006838" />
			<path d="M27.47,3.35A3.17,3.17,0,0,0,24.53,0a3.17,3.17,0,0,0-3,3.35c0,.11,0,13.91,0,13.91l5.89,0S27.47,3.47,27.47,3.35Z" fill="#171717" />
			<path d="M26.89,2.58A2.47,2.47,0,0,0,24.55,0a2.47,2.47,0,0,0-2.34,2.58c0,.09-.1,9.26-.62,12.83-.47,3.16,6.7,6.68,6,.13A100.62,100.62,0,0,1,26.89,2.58Z" fill="url(#linear-gradient-30)" />
			<g opacity="0.5">
				<path d="M24.74.54l-.11.15-.09.14-.18.29-.18.3c-.07.09-.14.19-.22.28h0v0a5.35,5.35,0,0,1-.48.47,3.46,3.46,0,0,1-.55.42,3.27,3.27,0,0,1,.14-.33,1.78,1.78,0,0,1,.17-.3,4.69,4.69,0,0,1,.42-.55h0a4.51,4.51,0,0,1,.47-.52A2.09,2.09,0,0,1,24.4.69.91.91,0,0,1,24.57.6.85.85,0,0,1,24.74.54Z" fill="#434345" />
				<path d="M25.39,1l-.1.14-.09.14a1,1,0,0,1-.08.14c0,.05-.05.1-.07.14L25,1.72l-.07.14c-.06.1-.11.2-.18.3l0,.08-.05.06-.1.13a2.85,2.85,0,0,1-.23.26c-.08.08-.15.16-.23.23l-.24.23h0a.55.55,0,0,0-.1.11l-.06.06,0,0s0,0-.05,0,0,0,0,0,0,0,0-.07a.53.53,0,0,1,0-.17h0c0-.05,0-.1.07-.16a1.19,1.19,0,0,1,.08-.16L24,2.45l.19-.26.1-.14L24.34,2l0-.06a5.24,5.24,0,0,1,.42-.54,2,2,0,0,1,.27-.23l.16-.1Z" fill="#434345" />
				<path d="M25.12,2.06a2.8,2.8,0,0,1,.33.27,3,3,0,0,1,.28.32,4,4,0,0,1,.28.4l.12.22.05.11.06.1c.06.14.12.28.16.4a.59.59,0,0,1,0,.17.36.36,0,0,1,0,.14.16.16,0,0,1,0,.1v0a.18.18,0,0,0-.06-.1A2.6,2.6,0,0,0,26.19,4l-.27-.33-.07-.09a.86.86,0,0,0-.07-.1,2.39,2.39,0,0,0-.13-.21,3.36,3.36,0,0,1-.22-.42c-.07-.13-.13-.27-.18-.38A3.73,3.73,0,0,1,25.12,2.06Z" fill="#434345" />
				<path d="M24.53,3.17l.1.09a3,3,0,0,1,.24.25c.09.11.19.23.3.38a5,5,0,0,1,.3.45c.05.08.1.16.14.24l.13.23a1.86,1.86,0,0,1,.09.24l.08.21.06.18a1.39,1.39,0,0,1,.06.13l0,.08,0,0h0l-.1,0-.13-.1-.14-.15a1.41,1.41,0,0,1-.14-.18L25.42,5l-.15-.22a1.82,1.82,0,0,1-.15-.23q-.15-.24-.27-.48a4.58,4.58,0,0,1-.18-.44,1.8,1.8,0,0,1-.11-.33Z" fill="#434345" />
				<path d="M24.61,4.47a2.22,2.22,0,0,1-.22.4c-.07.11-.16.23-.26.37a2.8,2.8,0,0,1-.32.38l-.17.2L23.47,6l-.17.16-.15.14a2.71,2.71,0,0,1-.34.29A2.57,2.57,0,0,1,23,6.16a.87.87,0,0,1,.1-.19,2.39,2.39,0,0,1,.13-.21,3.68,3.68,0,0,1,.31-.41A4.31,4.31,0,0,1,23.87,5a3.89,3.89,0,0,1,.35-.28A3.16,3.16,0,0,1,24.61,4.47Z" fill="#434345" />
				<path d="M25,5.46a3.72,3.72,0,0,1-.27.48c-.09.16-.19.3-.28.45l-.3.44c-.1.14-.2.29-.31.43v0l-.05.07,0,.06-.09.11a2,2,0,0,1-.19.22l-.2.21-.11.1-.1.1s0,0,0-.07a.24.24,0,0,0,0-.08.69.69,0,0,0,.05-.13l.12-.27c0-.09.08-.17.12-.26l.06-.12,0-.06s0,0,0-.06h0c.09-.16.19-.31.29-.46s.22-.29.34-.43a4.89,4.89,0,0,1,.4-.39A3.58,3.58,0,0,1,25,5.46Z" fill="#434345" />
				<path d="M24.93,6.54l.27.24.13.12.12.13a2.61,2.61,0,0,1,.22.27l.2.3.18.31.16.3a4.63,4.63,0,0,1,.29.64h0a0,0,0,0,0,0,0v0l0,.07s0,.05,0,.08v0a0,0,0,0,1,0,0h0v0h0s0,0,0,0,0,0,0,0l-.05,0L26.4,9l0,0,0,0h0a4.6,4.6,0,0,1-.46-.53l-.11-.15-.09-.14c-.06-.1-.12-.19-.17-.29a3,3,0,0,1-.16-.31c-.05-.1-.11-.2-.16-.31A.8.8,0,0,1,25.12,7s-.05-.1-.07-.16A3.4,3.4,0,0,1,24.93,6.54Z" fill="#434345" />
				<path d="M24.28,7.58a3.5,3.5,0,0,1,.43.33l.17.21a1.84,1.84,0,0,1,.17.22,5.92,5.92,0,0,1,.52.91h0c.05.07.08.14.13.21a2.36,2.36,0,0,1,.13.23.61.61,0,0,0,.05.12.65.65,0,0,1,0,.13.19.19,0,0,1,0,.07.09.09,0,0,1,0,.05l0,.06s0,0,0,0h0s0,0,0,0h0l-.05,0L25.83,10l0,0-.08-.09-.09-.09-.18-.17a1.71,1.71,0,0,1-.18-.2h0a7.58,7.58,0,0,1-.52-.91c-.08-.15-.15-.3-.22-.46A3.12,3.12,0,0,1,24.28,7.58Z" fill="#434345" />
				<path d="M24.45,8.71a3.24,3.24,0,0,1-.17.32l-.2.31a6.38,6.38,0,0,1-.52.52,5.68,5.68,0,0,1-.56.44,4.28,4.28,0,0,1-.61.4h-.05s0,0,0,0h.06s0,0,0,0h0s0,0,0,0h0l0,0h0a3.67,3.67,0,0,1,.42-.61,6.14,6.14,0,0,1,.52-.5,4.75,4.75,0,0,1,.55-.43A3.62,3.62,0,0,1,24.45,8.71Z" fill="#434345" />
				<path d="M24.91,9.33c-.05.13-.11.25-.17.37a2.46,2.46,0,0,1-.22.34,3.71,3.71,0,0,1-.23.32l-.26.31-.25.29-.13.15-.13.15a6.06,6.06,0,0,1-.58.55h0l0,0,0,0-.06,0-.06,0h0l0,0h0v0h0v0a.25.25,0,0,1,0-.07l0-.06,0,0s0,0,0,0h0a6.56,6.56,0,0,1,.4-.69l.12-.17a1.33,1.33,0,0,1,.12-.16c.08-.1.17-.2.25-.31l.28-.28.29-.27.15-.13.15-.13Z" fill="#434345" />
			</g>
			<path d="M20.45,16.3h8.69a.06.06,0,0,0,0,0,12.28,12.28,0,0,0-2.54-4,2.35,2.35,0,0,0-3.63,0,12.47,12.47,0,0,0-2.54,4A.06.06,0,0,0,20.45,16.3Z" fill="url(#Live-11)" />
			<path d="M21.73,15.79h6v0A11.84,11.84,0,0,0,26,12.2a1.4,1.4,0,0,0-2.5,0,11.84,11.84,0,0,0-1.76,3.56A0,0,0,0,0,21.73,15.79Z" fill="url(#Live-12)" />
			<path d="M25.51,11.53a1.79,1.79,0,0,0-.71-.11,1.93,1.93,0,0,0-.87.17,27,27,0,0,1-.25,4.71h2.1A23.42,23.42,0,0,1,25.51,11.53Z" fill="url(#Live-13)" />
			<path d="M37.21,32C35.08,26.21,28,25.45,24.49,25.2h0c-3.46.25-10.59,1-12.72,6.83s.63,13,2,15.36a106.52,106.52,0,0,1,5.86-9.34c2.29-3,4.2-2.57,4.2-2.57l1.43,0v0s1.91-.41,4.2,2.57a106.52,106.52,0,0,1,5.86,9.34C36.58,45.07,39.34,37.86,37.21,32Z" fill="url(#linear-gradient-31)" />
			<path d="M33.83,33.94c-1.58-4.69-6.87-5.3-9.43-5.51h0c-2.57.21-7.86.82-9.44,5.51-1.19,3.52-.33,7.67.58,10.32a73.62,73.62,0,0,1,4-6.21c2.29-3,4.2-2.57,4.2-2.57l1.43,0v0s1.91-.41,4.2,2.57a69,69,0,0,1,3.92,6C34.21,41.41,35,37.38,33.83,33.94Z" fill="#231f20" />
			<path d="M18.08,32.19c5.73-1.52-1.87.58-5.83-1.25A9.77,9.77,0,0,0,11.76,32c-2.13,5.83.63,13,2,15.36C13.71,47.39,10.15,34.29,18.08,32.19Z" fill="url(#Live-14)" />
			<path d="M36.7,30.91c-3.94,1.89-11.67-.25-5.91,1.28,7.51,2,4.73,13.82,4.41,15.09l.06.11c1.32-2.32,4.08-9.53,2-15.36A8.85,8.85,0,0,0,36.7,30.91Z" fill="url(#Live-15)" />
			<path d="M35.79,21.46c-1.06-2.32-7.42-6.82-10.71-7.19a1.24,1.24,0,0,0-.47,0c-3.29.37-9.65,4.87-10.71,7.19s-.54,9.07-.54,9.07l.88.84a35.67,35.67,0,0,1,3.27,3.77c1.09,1.93,13.58,1.93,14.67,0a45.92,45.92,0,0,1,3.28-3.77l.87-.84S36.88,23.85,35.79,21.46Z" fill="url(#Live-16)" />
			<g mask="url(#mask-10)">
				<path d="M32.1,21.34a29.37,29.37,0,0,1,0-3.58,26.53,26.53,0,0,0-3.47-2.19c.36,1,.81,2.1,1.35,3.23C31.44,21.78,32.22,23.85,32.1,21.34Z" opacity="0.5" fill="url(#Live-17)" style="mix-blend-mode:multiply" />
			</g>
			<g mask="url(#mask-11)">
				<path d="M19.85,18.38c.61-1.13,1.12-2.15,1.52-3a27.81,27.81,0,0,0-3.59,2.28c-.18,1.12-.41,2.42-.65,3.51C16.56,23.67,18.28,21.27,19.85,18.38Z" opacity="0.5" fill="url(#Live-18)" style="mix-blend-mode:multiply" />
			</g>
			<g mask="url(#mask-12)">
				<path d="M16.82,18.32a10.71,10.71,0,0,0-2.92,3.14c-1.09,2.39-.54,9.07-.54,9.07l.88.84s.26.26.63.66c.39-2.37,1.35-5.05,1.86-7.49A17.92,17.92,0,0,0,16.82,18.32Z" opacity="0.5" fill="url(#Live-19)" style="mix-blend-mode:multiply" />
			</g>
			<g mask="url(#mask-13)">
				<path d="M35.79,21.46A11.85,11.85,0,0,0,32.47,18a24.34,24.34,0,0,0,.41,6.39,60.1,60.1,0,0,1,1.53,8.09c.58-.63,1.05-1.12,1.05-1.12l.87-.84S36.88,23.85,35.79,21.46Z" opacity="0.5" fill="url(#Live-20)" style="mix-blend-mode:multiply" />
			</g>
			<path d="M13.23,27.34c0,1.77.13,3.19.13,3.19l.88.84.39.41h1.08C16.83,29.21,15.28,28,13.23,27.34Z" fill="url(#Live-21)" />
			<path d="M36.33,30.53s.13-1.55.14-3.43c-2.49.49-4.76,1.71-3.47,4.68h2.07l.39-.41Z" fill="url(#Live-22)" />
			<path d="M4.49,34.85a8.31,8.31,0,0,1-2.35-.34.66.66,0,0,1,.41-1.26,6.25,6.25,0,0,0,3.69,0c.57-.22,1.27-.52,2-.85a20,20,0,0,1,4.93-1.75,5.67,5.67,0,0,1,3.3.15.65.65,0,0,1,.32.87.67.67,0,0,1-.88.32,4.56,4.56,0,0,0-2.48,0h-.1a19.58,19.58,0,0,0-4.56,1.66c-.75.33-1.46.64-2.06.87A6.21,6.21,0,0,1,4.49,34.85Z" fill="url(#linear-gradient-32)" />
			<path d="M16.53,30.81a.65.65,0,0,1-.06.26.67.67,0,0,1-.88.31,4.66,4.66,0,0,0-2.48-.05l-.1,0A20,20,0,0,0,8.45,33c-.75.33-1.46.64-2.06.88a6.19,6.19,0,0,1-2.23.38,8.31,8.31,0,0,1-2.35-.34l-.12-.06a.67.67,0,0,0,.45.65,8.31,8.31,0,0,0,2.35.34,6.21,6.21,0,0,0,2.23-.39c.6-.23,1.31-.54,2.06-.87a19.58,19.58,0,0,1,4.56-1.66h.1a4.56,4.56,0,0,1,2.48,0,.67.67,0,0,0,.88-.32A.66.66,0,0,0,16.53,30.81Z" fill="url(#linear-gradient-33)" style="mix-blend-mode:multiply" />
			<polygon points="14.94 34.6 14.23 33.97 13.36 30.53 16.77 29.36 18.35 30.34 18.7 32.67 14.94 34.6" fill="url(#linear-gradient-34)" />
			<path d="M45.15,34.85a8.4,8.4,0,0,0,2.35-.34.68.68,0,0,0,.42-.84.67.67,0,0,0-.83-.42,6.27,6.27,0,0,1-3.7,0c-.57-.22-1.26-.52-2-.85a20,20,0,0,0-4.93-1.75,5.67,5.67,0,0,0-3.3.15.65.65,0,0,0-.32.87.67.67,0,0,0,.88.32,4.53,4.53,0,0,1,2.47,0h.11a19.58,19.58,0,0,1,4.56,1.66c.75.33,1.46.64,2.06.87A6.21,6.21,0,0,0,45.15,34.85Z" fill="url(#linear-gradient-35)" />
			<path d="M47.87,33.56a.67.67,0,0,1-.37.31,8.2,8.2,0,0,1-2.35.35,6.21,6.21,0,0,1-2.23-.39c-.6-.23-1.31-.55-2.06-.88A20,20,0,0,0,36.3,31.3l-.11,0a4.62,4.62,0,0,0-2.47,0,.65.65,0,0,1-.86-.28.66.66,0,0,0,.86.92,4.53,4.53,0,0,1,2.47,0h.11a19.58,19.58,0,0,1,4.56,1.66c.75.33,1.46.64,2.06.87a6.21,6.21,0,0,0,2.23.39,8.4,8.4,0,0,0,2.35-.34.68.68,0,0,0,.42-.84A.54.54,0,0,0,47.87,33.56Z" fill="url(#linear-gradient-36)" style="mix-blend-mode:multiply" />
			<polygon points="34.7 34.6 35.4 33.97 36.27 30.53 32.86 29.36 31.29 30.34 30.94 32.67 34.7 34.6" fill="url(#linear-gradient-37)" />
			<path d="M36,36.74a1.15,1.15,0,0,1-.48-.1L31,34.49a1.13,1.13,0,0,1,1-2.05l4.57,2.15A1.13,1.13,0,0,1,36,36.74Z" fill="url(#linear-gradient-38)" />
			<path d="M35.83,35.88l-4.57-2.15a1.12,1.12,0,0,1-.64-1,1.15,1.15,0,0,0-.2.29A1.13,1.13,0,0,0,31,34.49l4.57,2.15a1.15,1.15,0,0,0,.48.1,1.13,1.13,0,0,0,1-.64,1.29,1.29,0,0,0,.11-.47,1.15,1.15,0,0,1-.83.36A1.05,1.05,0,0,1,35.83,35.88Z" opacity="0.5" fill="url(#linear-gradient-39)" style="mix-blend-mode:multiply" />
			<path d="M13.41,36.74a1.13,1.13,0,0,1-.48-2.15l4.57-2.15a1.13,1.13,0,0,1,1,2.05l-4.57,2.15A1.15,1.15,0,0,1,13.41,36.74Z" fill="url(#linear-gradient-40)" />
			<path d="M19,33a1.1,1.1,0,0,0-.35-.42A1.12,1.12,0,0,1,18,33.71l-4.56,2.15A1.2,1.2,0,0,1,13,36a1.12,1.12,0,0,1-.68-.23,1.21,1.21,0,0,0,.1.36,1.13,1.13,0,0,0,1,.64,1.15,1.15,0,0,0,.48-.1l4.57-2.15A1.13,1.13,0,0,0,19,33Z" opacity="0.5" fill="url(#linear-gradient-41)" style="mix-blend-mode:multiply" />
			<path d="M32.28,34.6c-.25-.72-.5-1.11-1.73-.87a32.16,32.16,0,0,1-4.49.41,26.93,26.93,0,0,1-3,0C22,34.08,21,34,19.9,33.91c-.46,0-.93-.09-1.39-.18-1.29-.24-1.56.15-1.82.87a4.22,4.22,0,0,0,1,3.84c1.14,1,1.54.45,2.16-.41a2,2,0,0,1,3-.53c.52.43,1.08,1,1.81,1a1.83,1.83,0,0,0,1.08-.37,5.4,5.4,0,0,1,1.3-1,1.49,1.49,0,0,1,1.48.21,3.41,3.41,0,0,1,.72.7c.58.86,1,1.37,2.05.41A4.43,4.43,0,0,0,32.28,34.6Z" fill="url(#linear-gradient-42)" />
			<path d="M32.61,35c-.27-.72-.53-1.11-1.81-.87a35.36,35.36,0,0,1-4.7.41,29.52,29.52,0,0,1-3.12,0c-1.11-.05-2.22-.12-3.32-.22-.49-.05-1-.09-1.46-.18-1.35-.24-1.63.15-1.91.87a4.12,4.12,0,0,0,1.07,3.84c1.2,1,1.62.45,2.26-.41a2.12,2.12,0,0,1,3.15-.53c.54.43,1.13,1,1.9,1a2,2,0,0,0,1.13-.37,5.33,5.33,0,0,1,1.36-1,1.6,1.6,0,0,1,1.54.21,3.34,3.34,0,0,1,.75.7c.61.86,1,1.37,2.15.41A4.29,4.29,0,0,0,32.61,35Z" fill="url(#linear-gradient-43)" />
			<circle cx="18.61" cy="35.89" r="1.2" fill="url(#linear-gradient-44)" />
			<path d="M19.54,35.6a.94.94,0,1,1-.93-.94A.93.93,0,0,1,19.54,35.6Z" fill="url(#linear-gradient-45)" />
			<path d="M31.78,35.89a1.2,1.2,0,1,1-1.2-1.19A1.19,1.19,0,0,1,31.78,35.89Z" fill="url(#linear-gradient-46)" />
			<path d="M31.52,35.6a.94.94,0,1,1-.94-.94A.94.94,0,0,1,31.52,35.6Z" fill="url(#linear-gradient-47)" />
			<path d="M25.76,36.11a1.2,1.2,0,0,1-2.4,0,1.2,1.2,0,1,1,2.4,0Z" fill="url(#linear-gradient-48)" />
			<circle cx="24.56" cy="35.82" r="0.93" fill="url(#linear-gradient-49)" />
			<rect x="1.74" y="36.9" width="10.47" height="2.77" transform="translate(-13.55 5.22) rotate(-21.51)" fill="url(#linear-gradient-50)" />
			<path d="M10.81,34.35a1,1,0,0,0-.54,1.22l.86,2.26a1,1,0,0,0,1.22.54l2.73-1-1.48-4Z" fill="#231f20" />
			<path d="M2.65,41.83a.29.29,0,0,1-.27-.18L1.33,39a.28.28,0,1,1,.52-.21l1.06,2.65a.29.29,0,0,1-.16.37Z" fill="#231f20" />
			<path d="M15.29,38.26a.38.38,0,0,1-.35-.24L13,32.93a.37.37,0,0,1,.7-.26l1.91,5.09a.38.38,0,0,1-.23.48A.27.27,0,0,1,15.29,38.26Z" fill="#231f20" />
			<path d="M14.45,37.56,13,33.51l-2.2.84,0,0,1.44,4a.5.5,0,0,0,.13,0Z" fill="url(#linear-gradient-51)" />
			<circle cx="12.26" cy="35.06" r="0.85" fill="url(#linear-gradient-52)" />
			<path d="M13,35.14a.74.74,0,1,1-.73-.74A.74.74,0,0,1,13,35.14Z" fill="url(#radial-gradient-4)" />
			<path d="M12.28,35.81a.65.65,0,1,1,.65-.65A.65.65,0,0,1,12.28,35.81Zm0-1.19a.54.54,0,1,0,.54.54A.54.54,0,0,0,12.28,34.62Z" fill="#231f20" opacity="0.5" />
			<path d="M14,37a.2.2,0,0,1-.11.27l-1.43.54a.2.2,0,0,1-.26-.14L12,37.05a.22.22,0,0,1,.11-.28l1.43-.53a.2.2,0,0,1,.26.13Z" fill="url(#linear-gradient-53)" />
			<rect x="12.16" y="36.63" width="1.8" height="0.93" rx="0.19" transform="translate(-12.17 6.93) rotate(-20.52)" fill="url(#linear-gradient-54)" />
			<path d="M12.56,37.69a.18.18,0,0,1-.17-.11l-.15-.41a.15.15,0,0,1,0-.13.22.22,0,0,1,.11-.1l1.17-.43.07,0a.18.18,0,0,1,.16.11l.16.42a.17.17,0,0,1,0,.12.16.16,0,0,1-.11.1l-1.16.44Zm1-1.15h-.06L12.37,37a.11.11,0,0,0-.08.07.1.1,0,0,0,0,.09l.16.42a.13.13,0,0,0,.17.06l1.17-.43a.15.15,0,0,0,.08-.08.14.14,0,0,0,0-.09l-.15-.41A.13.13,0,0,0,13.59,36.54Z" fill="#231f20" opacity="0.5" />
			<rect x="41.26" y="33.01" width="2.77" height="10.47" transform="translate(-8.48 64.08) rotate(-68.69)" fill="url(#linear-gradient-55)" />
			<path d="M37.17,38.53A.94.94,0,0,0,38.39,38l.9-2.24a.93.93,0,0,0-.52-1.22l-2.72-1.09-1.65,4Z" fill="#231f20" />
			<path d="M48.24,38.59a.3.3,0,0,1,.07.31l-1,2.66a.27.27,0,0,1-.36.16.28.28,0,0,1-.17-.36l1-2.66a.28.28,0,0,1,.37-.16Z" fill="#231f20" />
			<path d="M36.54,32.61a.38.38,0,0,1,.09.42l-2.06,5a.38.38,0,0,1-.7-.29l2.06-5a.37.37,0,0,1,.49-.2Z" fill="#231f20" />
			<path d="M36.68,33.7,35,37.65l2.19.88h0l1.68-3.93a.24.24,0,0,0-.11-.06Z" fill="url(#linear-gradient-56)" />
			<path d="M36.7,34.11A.22.22,0,0,1,37,34l1.41.58a.21.21,0,0,1,.1.28l-.25.61a.2.2,0,0,1-.27.12L36.55,35a.21.21,0,0,1-.1-.28Z" fill="url(#linear-gradient-57)" />
			<rect x="37.02" y="33.79" width="0.93" height="1.8" rx="0.19" transform="translate(-8.83 56.22) rotate(-67.71)" fill="url(#linear-gradient-58)" />
			<path d="M38,35.3H37.9l-1.15-.48a.18.18,0,0,1-.1-.09.23.23,0,0,1,0-.14l.17-.41a.18.18,0,0,1,.17-.1l.07,0,1.15.47a.19.19,0,0,1,.11.23l-.17.41A.18.18,0,0,1,38,35.3Zm-1-1.18a.12.12,0,0,0-.12.07l-.17.41a.17.17,0,0,0,0,.1.14.14,0,0,0,.08.07l1.15.47a.14.14,0,0,0,.18-.06l.16-.41a.13.13,0,0,0-.08-.17L37,34.13Z" fill="#231f20" opacity="0.5" />
			<path d="M35.83,37.19c-.15-.06-.24-.19-.2-.27l.52-1.18c0-.08.2-.1.35,0l.81.36c.16.07.25.2.21.28L37,37.53c0,.08-.2.1-.35,0Z" fill="url(#linear-gradient-59)" />
			<path d="M35.88,37.23c-.13-.06-.21-.17-.17-.24l.47-1.07c0-.08.17-.1.3,0l.7.31c.13.06.21.17.17.25l-.47,1.07c0,.08-.17.09-.3,0Z" fill="url(#linear-gradient-60)" />
			<path d="M36.65,37.49a.31.31,0,0,1-.13,0L36,37.21c-.12-.05-.18-.15-.14-.24l.41-.93a.15.15,0,0,1,.15-.08l.13,0,.55.25a.24.24,0,0,1,.14.14.09.09,0,0,1,0,.1l-.41.93A.15.15,0,0,1,36.65,37.49ZM36.39,36a.1.1,0,0,0-.1.05l-.42.93c0,.06,0,.14.12.18l.55.24c.09,0,.19,0,.21,0l.42-.93s0-.05,0-.06a.23.23,0,0,0-.12-.12L36.5,36Z" fill="#231f20" opacity="0.5" />
			<path d="M29.91,21.63c-.82-2.22-1.51-3.93-1.64-4.19a4.33,4.33,0,0,0-3.13-1.92,4.62,4.62,0,0,0-3.26,1.87c-.4.6-1.31,2.49-2.14,4.14a14.13,14.13,0,0,1,5.08-1.38A14.16,14.16,0,0,1,29.91,21.63Z" fill="url(#linear-gradient-61)" />
			<path d="M29.91,21.63a14.16,14.16,0,0,0-5.09-1.48,14.13,14.13,0,0,0-5.08,1.38l-.62,1.22c-.94,1.79-4,8.78-4,8.78l-.61,1.35a30.8,30.8,0,0,1,19.5,0S31.61,26.22,29.91,21.63Z" fill="url(#linear-gradient-62)" />
			<path d="M16.67,30.71s8.87-2.25,15.61.29l-3.41-9s-3.61-3.93-8.31-.19Z" fill="url(#linear-gradient-63)" />
			<path d="M32.28,31l-.64-1.7a10.26,10.26,0,0,0-7.22-2.36c-4.23.17-6.46,1.93-7.36,2.89l-.39.88S25.54,28.46,32.28,31Z" />
			<path d="M28,25.85a3.34,3.34,0,1,1-3.34-3.13A3.24,3.24,0,0,1,28,25.85Z" fill="#231f20" />
			<path d="M27.36,25.85a2.72,2.72,0,1,1-2.72-2.54A2.63,2.63,0,0,1,27.36,25.85Z" fill="url(#radial-gradient-5)" />
			<path d="M22.72,16.52l-1.51,4.42c.52-.19,1.08-.37,1.63-.51l1.05-4.63A5.1,5.1,0,0,0,22.72,16.52Z" fill="#fff" opacity="0.3" />
			<path d="M28.43,21.6c-1.09-.89-4.14-2.76-7.87.21l-3.89,8.9s.64-.16,1.7-.35l3.47-8.93C24.85,19.33,27,20.77,28.43,21.6Z" fill="#fff" opacity="0.2" />
			<path d="M16.31,24.24c-.25,1-.86,1.75-1.36,1.63s-.72-1.05-.47-2.07.85-1.75,1.36-1.62S16.55,23.22,16.31,24.24Z" fill="url(#radial-gradient-6)" />
			<path d="M15.7,24.08c-.22.9-.67,1.57-1,1.48s-.39-.91-.17-1.81.69-1.53,1-1.46S15.91,23.17,15.7,24.08Z" opacity="0.7" fill="url(#linear-gradient-64)" />
			<path d="M15.49,23.89c-.18.77-.57,1.33-.87,1.26s-.34-.78-.16-1.55.6-1.29.84-1.23S15.68,23.12,15.49,23.89Z" opacity="0.7" fill="url(#linear-gradient-65)" style="mix-blend-mode:multiply" />
			<path d="M15.23,22.36a21.47,21.47,0,0,1-4.56-2.07c-2-1.3-2.28-.85-2.28-.85a5.13,5.13,0,0,1,1,1.9c.38-.14,1.47.5,2.7,1.33a13.44,13.44,0,0,1,2.4,2.12.82.82,0,0,0,.11.1h0c.26.06.61-.45.77-1.15S15.49,22.42,15.23,22.36Z" fill="url(#Live-23)" />
			<path d="M15.37,23.18a.34.34,0,0,1,.11.07c0-.48-.05-.84-.25-.89a21.47,21.47,0,0,1-4.56-2.07c-2-1.3-2.28-.85-2.28-.85a2.51,2.51,0,0,1,.54.77,5.75,5.75,0,0,1,1.88.9A21.47,21.47,0,0,0,15.37,23.18Z" fill="url(#Live-24)" />
			<path d="M9.31,21.61A.28.28,0,0,1,9,21.36a2.93,2.93,0,0,0-1.21-2A.29.29,0,0,1,7.73,19a.28.28,0,0,1,.39-.09A3.52,3.52,0,0,1,9.59,21.3a.28.28,0,0,1-.25.31Z" />
			<path d="M10.06,23.72,0,23.61s2.79-4.47,5.83-4.91S9.67,21.75,10.06,23.72Z" fill="url(#Live-25)" />
			<path d="M1.21,22c-.26.31-.48.6-.66.85a46.75,46.75,0,0,1,9.42.45c-.06-.27-.12-.56-.2-.85A46.53,46.53,0,0,0,1.21,22Z" fill="url(#Live-26)" />
			<path d="M10.06,23.72c-.31-1.54-.86-4-2.53-4.79,1.32,1,2.59,4.2-1,4.49-2.71.23-4.72-.12-5.68-1-.54.69-.86,1.2-.86,1.2Z" opacity="0.5" fill="url(#Live-27)" style="mix-blend-mode:multiply" />
			<g mask="url(#mask-14)">
				<path d="M2.57,20.55c.45-.42,2.64-2.41,4.75-1.5S8,23.46,4.42,23.3,1.55,21.5,2.57,20.55Z" fill="url(#Live-28)" />
			</g>
			<path d="M33.44,24.24c.24,1,.85,1.75,1.36,1.63s.71-1.05.47-2.07-.86-1.75-1.36-1.62S33.19,23.22,33.44,24.24Z" fill="url(#radial-gradient-7)" />
			<path d="M34.05,24.08c.22.9.66,1.57,1,1.48s.39-.91.18-1.81-.7-1.53-1-1.46S33.83,23.17,34.05,24.08Z" opacity="0.7" fill="url(#linear-gradient-66)" />
			<path d="M34.25,23.89c.19.77.58,1.33.87,1.26s.35-.78.16-1.55-.59-1.29-.83-1.23S34.07,23.12,34.25,23.89Z" opacity="0.7" fill="url(#linear-gradient-67)" style="mix-blend-mode:multiply" />
			<path d="M34.52,22.36a21.47,21.47,0,0,0,4.56-2.07c2-1.3,2.27-.85,2.27-.85a5.13,5.13,0,0,0-1,1.9c-.37-.14-1.47.5-2.69,1.33a14,14,0,0,0-2.41,2.12s-.11.1-.11.1h0c-.26.06-.61-.45-.78-1.15S34.25,22.42,34.52,22.36Z" fill="url(#Live-29)" />
			<path d="M34.38,23.18a.21.21,0,0,0-.11.07c0-.48,0-.84.25-.89a21.47,21.47,0,0,0,4.56-2.07c2-1.3,2.27-.85,2.27-.85a2.51,2.51,0,0,0-.54.77,5.65,5.65,0,0,0-1.87.9A21.47,21.47,0,0,1,34.38,23.18Z" fill="url(#Live-30)" />
			<path d="M40.43,21.61a.27.27,0,0,0,.28-.25,2.89,2.89,0,0,1,1.22-2A.29.29,0,0,0,42,19a.28.28,0,0,0-.39-.09,3.56,3.56,0,0,0-1.47,2.44.28.28,0,0,0,.25.31Z" />
			<path d="M39.68,23.72l10.06-.11S47,19.14,43.92,18.7,40.08,21.75,39.68,23.72Z" fill="url(#Live-31)" />
			<path d="M48.53,22c.26.31.48.6.67.85a46.83,46.83,0,0,0-9.43.45c.06-.27.13-.56.21-.85A46.46,46.46,0,0,1,48.53,22Z" fill="url(#Live-32)" />
			<path d="M39.68,23.72c.31-1.54.87-4,2.54-4.79-1.33,1-2.6,4.2,1,4.49,2.71.23,4.73-.12,5.68-1,.54.69.86,1.2.86,1.2Z" opacity="0.5" fill="url(#Live-33)" style="mix-blend-mode:multiply" />
			<g mask="url(#mask-15)">
				<path d="M47.17,20.55c-.44-.42-2.63-2.41-4.74-1.5s-.73,4.41,2.89,4.25S48.2,21.5,47.17,20.55Z" opacity="0.2" fill="url(#Live-34)" />
			</g>
			<path d="M33.35,83a11.78,11.78,0,0,0,.74-5.68C33.53,76,33,74.57,32.63,73.54H25.19v29.53A5.06,5.06,0,0,0,28,101.44c.93-1.61,1.74-3.09,2.46-4.44C28.86,95.93,32.48,85.79,33.35,83Z" fill="#8b0304" opacity="0.5" style="mix-blend-mode:multiply" />
			<path d="M15.12,75.9c0,.14-.09.27-.14.4-.79,1.75-.51,3.85.4,6.74S20,96.26,18.19,97c.71,1.34,1.52,2.8,2.43,4.4a5.11,5.11,0,0,0,2.82,1.63V73.54H16C15.79,74.21,15.47,75,15.12,75.9Z" opacity="0.5" fill="url(#Live-35)" style="mix-blend-mode:multiply" />
			<path d="M28.82,90l-4.46.47L19.9,90l-1.47.88s1.6,8.18,2,9.84,1,3.57,3.45,3.57h1c2.44,0,3.07-1.91,3.45-3.57s2-9.84,2-9.84Z" fill="url(#Live-36)" />
			<path d="M28,89.94l-3.68.47-3.68-.47-1.21.87S20.71,99,21,100.66s.83,3.57,2.85,3.57h.84c2,0,2.54-1.91,2.85-3.57s1.63-9.85,1.63-9.85Z" fill="url(#Live-37)" />
			<path d="M26.86,90.12h-.1l-2.21.29-2.21-.29h-.62a113.54,113.54,0,0,1,1.7,14,2.6,2.6,0,0,0,.71.09H25a2,2,0,0,0,.35,0A54.53,54.53,0,0,1,26.86,90.12Z" fill="url(#Live-38)" />
			<path d="M18.43,90.85a14,14,0,0,0,6.16,1.08,14.2,14.2,0,0,0,5.7-1.08Z" fill="url(#linear-gradient-68)" style="mix-blend-mode:multiply" />
			<path d="M31.19,69.4c-1.16-3.6-.1-5.64-.69-5.92s-1.35.62-2.79,1.81a5.52,5.52,0,0,1-3.34,1h0a5.48,5.48,0,0,1-3.33-1c-1.45-1.19-2.2-2.1-2.79-1.81s.47,2.32-.69,5.92-2.73,6-2.11,9.25,3,12.2,3,12.2a53.45,53.45,0,0,0,11.86,0s2.37-9,3-12.2S32.35,73,31.19,69.4Z" fill="url(#linear-gradient-69)" />
			<path d="M19.57,70.71a5.42,5.42,0,0,0-.24-6.43,2.36,2.36,0,0,1-.45-.73.68.68,0,0,0-.65-.07c-.6.28.47,2.32-.69,5.92s-2.73,6-2.11,9.25c.48,2.44,2,8.27,2.66,10.88-.25-1.25-.53-2.71-.86-4.43C15.33,75.15,18.26,72.5,19.57,70.71Z" opacity="0.2" fill="url(#linear-gradient-70)" style="mix-blend-mode:multiply" />
			<path d="M31.19,69.4c-1.16-3.6-.1-5.64-.69-5.92a.77.77,0,0,0-.76.13,2.33,2.33,0,0,1-.43.67,5.45,5.45,0,0,0-.24,6.43c1.31,1.79,4.24,4.44,2.34,14.39-.44,2.3-.8,4.16-1.09,5.64.26-1,2.38-9.09,3-12.09C33.91,75.45,32.35,73,31.19,69.4Z" opacity="0.2" fill="url(#linear-gradient-71)" style="mix-blend-mode:multiply" />
			<path d="M24.32,67.1c2.73,0,4.75-2.92,4.75-2.92l.07-.12c-.39.32-.85.76-1.43,1.23a5.52,5.52,0,0,1-3.34,1h0a5.48,5.48,0,0,1-3.33-1c-.71-.58-1.25-1.09-1.68-1.43l0,.09A6,6,0,0,0,24.32,67.1Z" opacity="0.5" fill="url(#linear-gradient-72)" style="mix-blend-mode:multiply" />
			<path d="M18.43,90.85a53.45,53.45,0,0,0,11.86,0A49.71,49.71,0,0,0,18.43,90.85Z" opacity="0.5" fill="url(#linear-gradient-73)" style="mix-blend-mode:multiply" />
			<g mask="url(#mask-16)">
				<path d="M37.9,25.54a15.76,15.76,0,0,1,2.39.78c.31.2-.23.59-1.79.39S37,25.43,37.9,25.54Z" fill="url(#Live-39)" />
			</g>
			<g mask="url(#mask-17)">
				<path d="M12,25.56a15.76,15.76,0,0,0-2.39.78c-.31.2.23.59,1.79.39S12.85,25.45,12,25.56Z" fill="url(#Live-40)" />
			</g>
			<g opacity="0.1">
				<path d="M9.34,67.55v-.08a.83.83,0,0,1,.08-.18,1.58,1.58,0,0,1,.15-.24l.2-.25c.07-.08.12-.17.19-.25a2.46,2.46,0,0,1,.17-.22.62.62,0,0,1,.15-.14l.06,0,0,.06-.05.06-.07.09a2.22,2.22,0,0,1-.15.23,2.11,2.11,0,0,1-.18.27c-.13.17-.28.33-.38.46a1,1,0,0,0-.1.16Z" fill="#fff" />
				<path d="M10,67.59l.19-.25.21-.25.25-.29c.09-.09.16-.19.24-.28a2.8,2.8,0,0,1,.22-.25.43.43,0,0,1,.1-.09l.08-.06.07-.05-.06.07-.07.07a.44.44,0,0,0-.08.1l-.2.26a2.09,2.09,0,0,1-.23.29c-.17.19-.35.38-.49.51Z" fill="#fff" />
				<path d="M10.88,67.65l.23-.27.24-.27.28-.32.14-.16s.09-.09.13-.15l.22-.29a1.48,1.48,0,0,1,.19-.18l.07,0h0a.22.22,0,0,0-.06,0,1.45,1.45,0,0,0-.15.2,2.6,2.6,0,0,0-.2.3,1.07,1.07,0,0,1-.14.16l-.13.17-.29.31-.26.25Z" fill="#fff" />
				<path d="M11.76,67.68s.08-.12.21-.28.3-.38.48-.59l.27-.31.22-.28c.07-.08.14-.13.18-.18L13.2,66l-.22.27-.09.14-.11.16-.26.32c-.18.21-.37.41-.51.56Z" fill="#fff" />
				<path d="M12.7,67.7l.07-.07a.3.3,0,0,0,.08-.08,1.27,1.27,0,0,0,.1-.12,7.61,7.61,0,0,0,.46-.67l.25-.36.22-.31a1.92,1.92,0,0,1,.19-.2l.08-.06-.07.08-.15.21c-.07.09-.13.21-.21.33s-.15.24-.23.36-.17.25-.25.37a2.49,2.49,0,0,1-.25.29l-.11.1-.1.08Z" fill="#fff" />
				<path d="M13.6,67.65s.06-.1.16-.24l.09-.12.08-.13c.06-.09.12-.19.19-.28a5.85,5.85,0,0,1,.37-.53l.19-.23-.15.26c-.09.15-.2.35-.33.55l-.2.28-.2.23Z" fill="#fff" />
			</g>
			<g opacity="0.1">
				<path d="M33.83,67.68l0-.07s.07-.11.11-.19l.14-.27c0-.1.09-.21.14-.31a4.65,4.65,0,0,1,.29-.59c0-.08.09-.14.11-.18l.05-.07,0,.08-.09.19c-.07.17-.15.39-.25.6a3.13,3.13,0,0,1-.15.32,2,2,0,0,1-.16.26,1.58,1.58,0,0,1-.14.17Z" fill="#fff" />
				<path d="M34.41,67.76l.13-.3c.08-.17.18-.39.3-.62l.09-.16.09-.16c0-.1.11-.2.16-.28l.07-.11.07-.08s0,0,0,0h0a.23.23,0,0,0-.06.07l0,.08-.06.11-.13.3c-.05.11-.11.21-.17.33s-.24.44-.34.6A3,3,0,0,1,34.41,67.76Z" fill="#fff" />
				<path d="M35.23,67.65l.13-.29c.09-.17.19-.41.31-.63s.12-.23.18-.33a1.5,1.5,0,0,1,.18-.28l.2-.25-.15.28-.08.13s0,.11-.08.16l-.17.33-.17.33c-.06.11-.12.2-.17.28Z" fill="#fff" />
				<path d="M35.87,67.68l.05-.08.12-.21c.1-.17.22-.4.35-.63a3.79,3.79,0,0,1,.2-.34,2.1,2.1,0,0,1,.19-.27A1,1,0,0,1,37,66l.07-.06L37,66l-.06.08-.07.12c-.06.08-.11.18-.17.28l-.19.34-.2.34a2.26,2.26,0,0,1-.19.28,1.14,1.14,0,0,1-.15.19Z" fill="#fff" />
				<path d="M36.67,67.66l.11-.24.15-.23.15-.21.15-.22h0l.13-.22.12-.22.13-.22.17-.19-.13.21-.11.23c0,.08-.07.16-.1.23l-.14.23h0l-.16.22-.16.21-.17.2Z" fill="#fff" />
				<path d="M37.58,67.63a2.15,2.15,0,0,1,.15-.28c.09-.17.21-.39.34-.61l.2-.31.17-.28a1.47,1.47,0,0,1,.15-.17l.07-.06,0,.07a.78.78,0,0,0-.12.19,2.57,2.57,0,0,0-.15.29l-.09.16-.1.17-.2.31-.18.27Z" fill="#fff" />
				<path d="M38.44,67.69l.05-.06a1.32,1.32,0,0,0,.12-.16l.32-.53a1.89,1.89,0,0,1,.17-.28,2.67,2.67,0,0,1,.18-.23,2.09,2.09,0,0,1,.15-.15l.06,0-.05.07-.12.16c0,.07-.1.15-.15.24L39,67l-.18.28c-.06.09-.13.16-.18.23a.62.62,0,0,1-.15.14Z" fill="#fff" />
			</g>
			<g opacity="0.1">
				<path d="M39.65,35.89l.07.08.09.1a.73.73,0,0,1,.1.13l.1.17c0,.06.06.14.1.21a1.43,1.43,0,0,1,.08.22c0,.07.05.15.08.23s.07.32.1.47.05.29.07.41.06.41.06.41a4.06,4.06,0,0,1-.12-.4c-.05-.23-.13-.55-.21-.86l-.06-.23a1.43,1.43,0,0,0-.08-.22,2.07,2.07,0,0,0-.08-.2l-.09-.18a1.63,1.63,0,0,0-.15-.25Z" fill="#fff" />
				<path d="M40.75,36.31h0a.15.15,0,0,1,.07,0,.41.41,0,0,1,.1.09.75.75,0,0,1,.11.13,1.76,1.76,0,0,1,.18.39,3.64,3.64,0,0,1,.14.47l.09.47c0,.15.06.3.08.42a3.74,3.74,0,0,1,.08.4l-.13-.39c-.07-.24-.15-.56-.22-.88a3.59,3.59,0,0,0-.12-.47,1.67,1.67,0,0,0-.15-.38s0-.1-.08-.14l-.09-.1-.06-.05Z" fill="#fff" />
				<path d="M42.44,36.92l.1.07a.41.41,0,0,1,.1.09.76.76,0,0,1,.11.14,1.74,1.74,0,0,1,.19.41,2.62,2.62,0,0,1,.13.5c0,.17.06.34.08.5a3.77,3.77,0,0,1,0,.44,1.82,1.82,0,0,0,0,.31.34.34,0,0,0,0,.08v0l0,0a.41.41,0,0,0,0-.08,1.53,1.53,0,0,1-.08-.31c0-.13,0-.28-.07-.44l-.09-.5a3.61,3.61,0,0,0-.27-.89,1,1,0,0,0-.09-.15l-.09-.1Z" fill="#fff" />
				<path d="M44,37.61l.07.09a.44.44,0,0,1,.08.1.53.53,0,0,1,.08.15,1.45,1.45,0,0,1,.14.4,2.53,2.53,0,0,1,.07.48c0,.33,0,.65,0,.9s0,.22,0,.29v.11a3.19,3.19,0,0,1-.07-.4c0-.24,0-.57-.06-.89,0-.16,0-.33-.06-.47a1.92,1.92,0,0,0-.11-.4,1.29,1.29,0,0,0-.12-.26Z" fill="#fff" />
				<path d="M45.34,38l.14.37a2.8,2.8,0,0,1,.13.38l.06.22c0,.08,0,.16,0,.24s0,.15,0,.23a1.77,1.77,0,0,0,0,.23v.4c0,.24,0,.4,0,.4s0-.16,0-.4a3.15,3.15,0,0,0,0-.4c0-.07,0-.14,0-.22s0-.15,0-.23,0-.3-.09-.44-.06-.28-.1-.39S45.34,38,45.34,38Z" fill="#fff" />
				<path d="M46.78,38.6l0,.07.07.2c0,.08,0,.18.07.28s0,.22,0,.33,0,.23,0,.34,0,.11,0,.16a.51.51,0,0,1,0,.13.35.35,0,0,1,0,.12l0,.08,0,.08v-.08a.29.29,0,0,1,0-.09.45.45,0,0,1,0-.11V40a.76.76,0,0,1,0-.15c0-.1,0-.22,0-.33l0-.32c0-.11,0-.21,0-.29s0-.15,0-.2A.28.28,0,0,0,46.78,38.6Z" fill="#fff" />
				<path d="M39,37.85l.2-.34c.07-.1.14-.22.24-.34l.14-.18a1.45,1.45,0,0,1,.18-.17l.18-.16.19-.13a3.42,3.42,0,0,1,.36-.2,1.37,1.37,0,0,1,.26-.12h.09l0,0h0l-.08,0-.25.14-.33.23-.19.13-.17.16a1.29,1.29,0,0,0-.17.16l-.15.17a3.14,3.14,0,0,0-.25.32Z" fill="#fff" />
				<path d="M39.55,38.24l.07-.1c.05-.06.1-.16.19-.26l.14-.16c0-.06.11-.11.17-.17l.2-.16.22-.16.22-.13L41,37l.22-.09.21-.07a1.78,1.78,0,0,1,.31-.08l.11,0-.11,0-.3.11-.19.08-.21.11a.94.94,0,0,0-.22.12l-.22.13-.22.15-.19.16a1.3,1.3,0,0,0-.18.15l-.15.14c-.09.09-.16.18-.21.24Z" fill="#fff" />
				<path d="M40.17,38.58l.37-.35c.12-.11.24-.24.39-.37s.3-.26.47-.39a4,4,0,0,1,.52-.32,1,1,0,0,1,.26-.11l.24-.08.21,0h.31l-.14,0-.16,0-.2.06a1.13,1.13,0,0,0-.24.08l-.25.12a4.29,4.29,0,0,0-.5.33l-.47.38-.4.34A4.73,4.73,0,0,1,40.17,38.58Z" fill="#fff" />
				<path d="M41,38.86a.5.5,0,0,1,.07-.13,1.27,1.27,0,0,1,.26-.27l.21-.15.23-.17L42,38a2.49,2.49,0,0,1,.28-.15,1.85,1.85,0,0,1,.29-.13l.29-.11.27-.07.26,0,.38,0h.15l-.52.09-.25,0-.27.08-.28.11-.28.13a1.73,1.73,0,0,0-.27.15l-.26.15c-.16.12-.32.21-.45.3a1.27,1.27,0,0,0-.29.25A.63.63,0,0,0,41,38.86Z" fill="#fff" />
				<path d="M42,39.19l.07-.1a2,2,0,0,1,.22-.27,1.29,1.29,0,0,1,.17-.16,1.66,1.66,0,0,1,.21-.16l.24-.15.25-.13c.18-.07.36-.14.53-.19s.34-.07.48-.1l.19,0,.15,0,.12,0-.12.05a1.79,1.79,0,0,1-.33.11L44,38l-.24.07a2.67,2.67,0,0,0-.26.09l-.26.11-.25.12-.23.14c-.07,0-.15.09-.21.14l-.18.14-.14.14-.1.11Z" fill="#fff" />
				<path d="M43,39.59l.1-.1c.07-.05.15-.15.28-.24l.19-.14a1.82,1.82,0,0,1,.23-.15,2.07,2.07,0,0,1,.25-.15l.27-.14.28-.11.28-.1a1.45,1.45,0,0,1,.26-.07l.24,0c.15,0,.28,0,.36-.06h.14l-.13,0a3.1,3.1,0,0,0-.36.09l-.23.06-.26.09-.27.1-.27.12-.27.13L43.8,39l-.23.13-.2.14c-.13.08-.23.16-.3.21Z" fill="#fff" />
				<path d="M43.91,39.87a1,1,0,0,1,.13-.16.93.93,0,0,1,.14-.14,2.54,2.54,0,0,1,.34-.23,3,3,0,0,1,.36-.19l.18-.09.18-.08.19-.08.19-.07.39-.12c.26-.06.52-.12.79-.16h0l0,0-.77.22-.38.13-.19.07-.18.08-.19.08-.18.08-.36.18a3.79,3.79,0,0,0-.34.2l-.16.13Z" fill="#fff" />
				<path d="M44.79,40.17l.1-.08a2.42,2.42,0,0,1,.26-.2l.19-.12.22-.12.24-.11.26-.1.26-.08.26,0a4.66,4.66,0,0,1,.47-.06h.4s0,0,0,0h-.2l-.19,0-.22,0-.23,0-.26.06-.25.08-.25.09a1.33,1.33,0,0,0-.24.11,2.35,2.35,0,0,0-.22.1l-.2.11-.28.16Z" fill="#fff" />
				<path d="M45.28,40.45l.06-.05.18-.09c.08,0,.17-.06.28-.08a1.64,1.64,0,0,1,.32,0,1.87,1.87,0,0,1,.33,0l.16,0,.13,0,.1,0a.22.22,0,0,1,.07.06l0,.07-.05-.06-.07,0-.11,0-.12,0h-.15a1.74,1.74,0,0,0-.32,0c-.22,0-.43.06-.59.09l-.19.06Z" fill="#fff" />
				<path d="M2.23,39l.08.06a1.19,1.19,0,0,1,.22.16l.13.12.15.14c0,.05.1.1.14.16l.14.18.12.19a1.62,1.62,0,0,1,.1.18c.07.13.11.25.16.35s.06.2.08.26l0,.1-.05-.1-.11-.24s0-.1-.08-.15l-.1-.18s-.07-.12-.11-.18L3,39.83c-.09-.11-.17-.23-.26-.33l-.13-.15-.13-.13L2.3,39Z" fill="#fff" />
				<path d="M3.11,38.54h0s0,0,.07,0h.13a.47.47,0,0,1,.15.06,1.17,1.17,0,0,1,.32.24,3.39,3.39,0,0,1,.31.34,3.19,3.19,0,0,1,.26.38l.17.36.13.37s-.08-.14-.18-.35-.12-.21-.2-.34a3.9,3.9,0,0,0-.25-.36l-.29-.34-.15-.14a.72.72,0,0,0-.15-.11l-.13-.08-.12,0h-.1Z" fill="#fff" />
				<path d="M4.21,38.16l.09.05.22.15.31.24a1.21,1.21,0,0,1,.16.16l.14.18c.09.11.17.25.25.37l.09.18.07.17c0,.11.06.2.08.26l0,.11s-.07-.14-.16-.35l-.19-.33c-.08-.11-.15-.24-.24-.36l-.14-.17a1.14,1.14,0,0,0-.15-.16l-.28-.26Z" fill="#fff" />
				<path d="M5.1,37.74a.23.23,0,0,1,.11,0,1,1,0,0,1,.26.14,3.86,3.86,0,0,0,.34.24l.18.14.19.16a1,1,0,0,1,.16.19,1.33,1.33,0,0,1,.14.19,1.18,1.18,0,0,1,.11.19,1.42,1.42,0,0,1,.08.18,1.56,1.56,0,0,1,.08.28l0,.11,0-.1,0-.12a1.07,1.07,0,0,1-.07-.15c0-.05-.06-.11-.09-.17a.94.94,0,0,0-.12-.18l-.14-.18c0-.05-.1-.12-.16-.17l-.17-.16-.18-.14c-.12-.1-.23-.18-.32-.27a.8.8,0,0,0-.23-.16A.31.31,0,0,0,5.1,37.74Z" fill="#fff" />
				<path d="M6.34,37.31l.16,0,.14.07a1.24,1.24,0,0,1,.26.19,3.2,3.2,0,0,1,.43.47.73.73,0,0,1,.09.13l.07.14a2.68,2.68,0,0,1,.12.3l.09.3.12.29h0l0,0s0,0,0,0h0s0,0,0,0h0l-.08-.14c0-.05-.05-.09-.07-.14l-.12-.29-.06-.15a.61.61,0,0,0-.07-.14l-.07-.14-.08-.12a6,6,0,0,0-.41-.47,1.07,1.07,0,0,0-.23-.2A.72.72,0,0,0,6.34,37.31Z" fill="#fff" />
				<path d="M7.51,36.86l.1,0a.34.34,0,0,1,.12,0l.14.07.15.11.15.14a1.14,1.14,0,0,1,.15.16l.14.18a2.14,2.14,0,0,1,.13.19c0,.07.06.14.1.2s.05.13.07.2,0,.12,0,.18l0,.15a.5.5,0,0,1,0,.12v.06a.08.08,0,0,0,0,0v0h0s0,0,0,0v-.06c0-.06-.06-.15-.08-.26l-.06-.17A1.42,1.42,0,0,0,8.61,38a1.74,1.74,0,0,0-.1-.19l-.12-.18c-.05-.06-.09-.13-.14-.18a.73.73,0,0,0-.14-.16c0-.05-.09-.11-.14-.15l-.13-.11L7.71,37a.53.53,0,0,0-.1-.06Z" fill="#fff" />
				<path d="M8.6,36.45l.1,0,.13,0,.07,0,.08,0,.17.1a1.24,1.24,0,0,1,.18.14,1.45,1.45,0,0,1,.18.17l.17.18.14.2a1.2,1.2,0,0,1,.13.21,2,2,0,0,1,.11.2c0,.06,0,.13.07.18a.7.7,0,0,1,.06.17,1,1,0,0,0,0,.12c0,.07,0,.11,0,.11l0-.1,0-.12c0-.05-.05-.1-.07-.16L10,37.84l-.12-.19a.8.8,0,0,0-.13-.19,1.49,1.49,0,0,0-.15-.2l-.16-.18-.16-.16c-.06-.05-.11-.11-.17-.15L9,36.66l-.07-.06-.07,0-.11-.06Z" fill="#fff" />
				<path d="M2.75,40.2v-.09s0-.13,0-.22A3.54,3.54,0,0,1,3,39.23a3,3,0,0,1,.31-.62.66.66,0,0,1,.15-.17.11.11,0,0,1,.07,0h0a.09.09,0,0,0-.06,0,1.67,1.67,0,0,0-.12.19c-.08.16-.17.39-.27.62s-.18.46-.24.64-.06.16-.07.21A.32.32,0,0,0,2.75,40.2Z" fill="#fff" />
				<path d="M3.85,40.65s0,0,0-.11,0-.18,0-.31V40c0-.08,0-.15,0-.23a2,2,0,0,1,0-.24,2.21,2.21,0,0,1,0-.25c0-.08.05-.16.07-.24a1.57,1.57,0,0,1,.09-.23,1.36,1.36,0,0,1,.1-.21c0-.06.07-.12.11-.17a.39.39,0,0,1,.1-.14l.08-.11.08-.08-.06.1-.07.11-.09.14-.09.18-.08.21a1.55,1.55,0,0,0-.08.23,1.55,1.55,0,0,0-.07.23,4.57,4.57,0,0,0-.1.48,1.46,1.46,0,0,1,0,.22c0,.07,0,.14,0,.2s0,.23,0,.31Z" fill="#fff" />
				<path d="M5.1,40.06v-.45a2.11,2.11,0,0,1,0-.21,2,2,0,0,1,0-.24c0-.08,0-.16.07-.25l.08-.25.21-.48a3.36,3.36,0,0,1,.23-.39A1.07,1.07,0,0,1,6,37.55a.25.25,0,0,1,.08,0h0L6,37.56l-.08.11a.56.56,0,0,0-.1.15,3.44,3.44,0,0,0-.21.39l-.19.48-.09.25a2.17,2.17,0,0,0-.07.24c0,.08,0,.16,0,.23a1.6,1.6,0,0,0,0,.21C5.13,39.88,5.1,40.06,5.1,40.06Z" fill="#fff" />
				<path d="M6.1,39.74l0-.14a1.22,1.22,0,0,1,0-.17l.06-.22c0-.07.07-.15.1-.24s.08-.17.13-.26.21-.37.33-.55l.38-.51a3.16,3.16,0,0,1,.37-.42A1.3,1.3,0,0,1,7.85,37,.45.45,0,0,1,8,37H8l0,0a.28.28,0,0,0-.09,0,1.1,1.1,0,0,0-.14.11,1.06,1.06,0,0,0-.15.15,1.54,1.54,0,0,0-.17.19l-.17.24c-.12.16-.25.33-.37.51s-.24.36-.34.53-.1.18-.14.26l-.11.23c0,.08,0,.15-.08.21s0,.11-.05.16A1,1,0,0,1,6.1,39.74Z" fill="#fff" />
				<path d="M7.31,39.34c.05-.15.1-.3.16-.45l.18-.44L7.87,38l.25-.4.3-.38.33-.33.38-.29.42-.23h0a.25.25,0,0,0,0,.07.17.17,0,0,1,0-.07h0l-.39.26L8.8,37l-.32.34-.28.37-.26.39-.22.41-.21.43C7.44,39.05,7.38,39.19,7.31,39.34Z" fill="#fff" />
				<path d="M8.45,38.8l.05-.13a.69.69,0,0,1,.05-.13l.07-.12a.83.83,0,0,1,.07-.13l.08-.11a1,1,0,0,1,.08-.11L9,37.86l.21-.19c.07-.07.15-.12.22-.18a1.88,1.88,0,0,1,.23-.16l.24-.14h0l.3-.13.16-.05a.29.29,0,0,1,.16,0,.45.45,0,0,0-.16,0l-.14.07-.3.15h0l-.12.07-.12.08-.22.16-.21.18-.2.18-.19.2c-.07.07-.12.14-.18.21a1,1,0,0,0-.08.11l-.08.11a.75.75,0,0,0-.06.13Z" fill="#fff" />
				<path d="M9.57,38.41l0-.06a.54.54,0,0,1,.11-.14A1.62,1.62,0,0,1,9.9,38c.07-.06.16-.1.24-.16a1.53,1.53,0,0,1,.27-.11.9.9,0,0,1,.24-.07h.25l-.07,0h-.07l-.09,0-.11,0-.12.05-.25.13-.24.14-.11.07a.71.71,0,0,0-.09.07l-.08.06-.05,0Z" fill="#fff" />
			</g>
			<path d="M21.31,68.82s.77-1.94,1.23-1.45c.25.28.05,2.84.07,4s-1.9,1.52-1.86,3.78S21,87.32,21,88.78s-1.74-1.1-1.76-1.9S19.06,76.8,19,75a5,5,0,0,1,1.69-3.54A4.62,4.62,0,0,0,21.31,68.82Z" fill="#fff" opacity="0.1" />
			<path d="M15.35,58.24H13.58c1,.07,1.69.31,1.69.6s-.69.53-1.62.61h1.7a.19.19,0,0,0,.19-.19v-.84A.18.18,0,0,0,15.35,58.24Z" fill="url(#linear-gradient-74)" style="mix-blend-mode:multiply" />
			<g mask="url(#mask-18)">
				<path d="M29.42,72.61c-2.1-2.1-1.86-4-2-5.36s-.08-.34-2.17-.15l-.91,0-.9,0c-2.09-.19-2.06-1.11-2.18.15s.12,3.26-2,5.36c-.85.88-.41,12.56-.15,18.07a34.17,34.17,0,0,1,4.31-.24h1.81a34,34,0,0,1,4.3.24C29.82,85.17,30.27,73.49,29.42,72.61Z" opacity="0.5" fill="url(#linear-gradient-75)" />
			</g>
		</g>
	</g>
</svg>
